<svg xmlns="http://www.w3.org/2000/svg" xmlns:xlink="http://www.w3.org/1999/xlink" width="227" zoomAndPan="magnify" viewBox="0 0 170.25 56.999997" height="76" preserveAspectRatio="xMidYMid meet" version="1.0"><defs><g/><clipPath id="id1"><path d="M 16 0.125 L 25 0.125 L 25 25 L 16 25 Z M 16 0.125 " clip-rule="nonzero"/></clipPath><clipPath id="id2"><path d="M 0.0078125 20.101562 L 46.527344 20.101562 L 46.527344 50.710938 L 0.0078125 50.710938 Z M 0.0078125 20.101562 " clip-rule="nonzero"/></clipPath><clipPath id="id3"><path d="M 118.40625 32.6875 L 136.957031 32.6875 L 136.957031 53.753906 L 118.40625 53.753906 Z M 118.40625 32.6875 " clip-rule="nonzero"/></clipPath><clipPath id="id4"><path d="M 141 32.171875 L 162 32.171875 L 162 47 L 141 47 Z M 141 32.171875 " clip-rule="nonzero"/></clipPath><clipPath id="id5"><path d="M 99 32.171875 L 122 32.171875 L 122 48 L 99 48 Z M 99 32.171875 " clip-rule="nonzero"/></clipPath><clipPath id="id6"><path d="M 69.492188 35 L 83.949219 35 L 83.949219 53.753906 L 69.492188 53.753906 Z M 69.492188 35 " clip-rule="nonzero"/></clipPath><clipPath id="id7"><path d="M 48.402344 44 L 51 44 L 51 49 L 48.402344 49 Z M 48.402344 44 " clip-rule="nonzero"/></clipPath><clipPath id="id8"><path d="M 48.402344 36 L 57 36 L 57 42 L 48.402344 42 Z M 48.402344 36 " clip-rule="nonzero"/></clipPath><clipPath id="id9"><path d="M 48.402344 42 L 55 42 L 55 50 L 48.402344 50 Z M 48.402344 42 " clip-rule="nonzero"/></clipPath><clipPath id="id10"><path d="M 48.402344 33 L 60 33 L 60 40 L 48.402344 40 Z M 48.402344 33 " clip-rule="nonzero"/></clipPath><clipPath id="id11"><path d="M 167 44 L 169.132812 44 L 169.132812 49 L 167 49 Z M 167 44 " clip-rule="nonzero"/></clipPath><clipPath id="id12"><path d="M 168 40 L 169.132812 40 L 169.132812 42 L 168 42 Z M 168 40 " clip-rule="nonzero"/></clipPath><clipPath id="id13"><path d="M 163 34 L 169.132812 34 L 169.132812 45 L 163 45 Z M 163 34 " clip-rule="nonzero"/></clipPath></defs><g clip-path="url(#id1)"><path fill="rgb(66.268921%, 42.349243%, 11.759949%)" d="M 21.773438 0.125 C 21.773438 0.125 25.125 6.777344 19.71875 13.464844 C 16.089844 17.949219 15.304688 20.191406 17.421875 24.984375 C 16.753906 21.285156 18.554688 19.019531 22.195312 14.070312 C 24.761719 10.585938 26.003906 6.613281 21.773438 0.125 " fill-opacity="1" fill-rule="nonzero"/></g><path fill="rgb(66.268921%, 42.349243%, 11.759949%)" d="M 28.0625 7.429688 C 28.0625 7.429688 29.371094 11.699219 23.738281 16.433594 C 18.304688 21 19.203125 24.285156 19.960938 26.527344 C 20.261719 23.132812 20.589844 21.214844 24.34375 17.707031 C 27.476562 14.78125 29.691406 12.402344 28.0625 7.429688 " fill-opacity="1" fill-rule="nonzero"/><g clip-path="url(#id2)"><path fill="rgb(38.42926%, 10.978699%, 7.839966%)" d="M 40.878906 26.921875 C 40.878906 23.488281 33.339844 20.644531 23.503906 20.148438 C 22.753906 21.078125 22.238281 21.898438 21.890625 22.574219 C 30.203125 22.769531 36.71875 24.613281 36.71875 26.863281 C 36.71875 29.238281 29.433594 31.167969 20.445312 31.167969 C 11.453125 31.167969 4.167969 29.238281 4.167969 26.863281 C 4.167969 24.945312 8.910156 23.320312 15.460938 22.761719 C 15.257812 21.828125 15.199219 20.898438 15.183594 20.300781 C 6.445312 21.078125 0.0078125 23.75 0.0078125 26.921875 C 0.0078125 27.09375 0.0273438 27.261719 0.0664062 27.429688 C 3.285156 55.894531 27.214844 50.265625 27.214844 50.265625 C 11.164062 48.171875 7.171875 39.578125 5.902344 34.304688 C 10.4375 43.035156 17.308594 46.8125 22.976562 46.628906 C 35.398438 46.21875 39.09375 34.257812 40.453125 29.804688 C 42.464844 29.273438 44.007812 31.046875 43.6875 32.96875 C 43.472656 34.296875 42.753906 35.867188 39.15625 37.136719 C 39.15625 37.136719 38.730469 38.441406 37.371094 39.988281 C 42.585938 39.230469 45.808594 36.550781 46.335938 33.789062 C 47.75 26.339844 40.878906 26.921875 40.878906 26.921875 " fill-opacity="1" fill-rule="nonzero"/></g><path fill="rgb(38.42926%, 10.978699%, 7.839966%)" d="M 161.949219 38.328125 C 161.386719 38.898438 161.832031 38.628906 162.03125 38.636719 C 162.105469 38.636719 162.117188 38.71875 162.121094 38.757812 C 162.136719 39.101562 161.71875 39.058594 161.71875 39.058594 C 161.605469 39.066406 161.527344 39.242188 161.535156 39.378906 C 161.542969 39.554688 161.574219 39.722656 161.625 39.878906 C 161.644531 39.941406 161.703125 39.976562 161.765625 39.972656 C 162.011719 39.957031 162.238281 40.019531 162.472656 40.179688 C 162.722656 40.347656 162.9375 40.582031 163.039062 40.867188 C 163.066406 40.929688 163.128906 40.96875 163.195312 40.957031 C 163.195312 40.957031 163.199219 40.957031 163.199219 40.953125 C 163.253906 40.945312 163.296875 40.898438 163.304688 40.839844 C 163.355469 40.53125 163.402344 40.222656 163.570312 39.949219 C 163.667969 39.792969 163.789062 39.648438 163.921875 39.519531 C 163.957031 39.484375 163.972656 39.4375 163.960938 39.386719 C 163.957031 39.367188 163.953125 39.351562 163.949219 39.332031 C 163.886719 39.089844 163.785156 38.855469 163.636719 38.65625 C 163.582031 38.585938 163.527344 38.519531 163.460938 38.457031 C 163.070312 38.078125 162.371094 37.890625 161.949219 38.328125 " fill-opacity="1" fill-rule="nonzero"/><path fill="rgb(38.42926%, 10.978699%, 7.839966%)" d="M 160.863281 41.015625 C 160.910156 40.96875 161.023438 41.019531 161.039062 41.082031 C 161.0625 41.191406 161.023438 41.308594 161.0625 41.414062 C 161.089844 41.484375 161.097656 41.480469 161.164062 41.492188 C 161.347656 41.527344 161.589844 41.457031 161.769531 41.390625 C 161.957031 41.324219 162.1875 41.226562 162.246094 41.011719 C 162.320312 40.734375 161.941406 40.621094 161.75 40.566406 C 161.710938 40.558594 161.703125 40.503906 161.75 40.515625 C 161.957031 40.570312 162.292969 40.671875 162.335938 40.925781 C 162.363281 41.101562 162.214844 41.242188 162.105469 41.355469 C 161.957031 41.519531 161.757812 41.632812 161.546875 41.6875 C 161.34375 41.738281 161.101562 41.730469 160.933594 41.597656 C 160.765625 41.46875 160.691406 41.171875 160.863281 41.015625 Z M 161.417969 45.265625 C 162.050781 45.367188 162.65625 45.042969 163.03125 44.496094 C 163.535156 43.769531 163.582031 42.769531 163.339844 41.933594 C 163.148438 41.265625 162.679688 40.601562 161.988281 40.421875 C 160.851562 40.128906 160.105469 41.203125 159.890625 42.207031 C 159.769531 42.78125 159.765625 43.390625 159.964844 43.941406 C 160.164062 44.496094 160.578125 44.980469 161.121094 45.183594 C 161.21875 45.222656 161.320312 45.25 161.417969 45.265625 " fill-opacity="1" fill-rule="nonzero"/><path fill="rgb(38.42926%, 10.978699%, 7.839966%)" d="M 150.90625 46.667969 C 151.550781 47.253906 152.96875 47.617188 153.746094 47.019531 C 153.8125 46.96875 153.8125 46.863281 153.742188 46.8125 C 153.726562 46.804688 153.710938 46.792969 153.695312 46.777344 C 153.59375 46.695312 153.507812 46.578125 153.441406 46.460938 C 153.332031 46.269531 153.171875 45.847656 153.320312 45.636719 C 153.386719 45.542969 153.5 45.550781 153.582031 45.617188 C 153.703125 45.722656 153.742188 45.890625 153.726562 46.046875 C 153.714844 46.171875 153.71875 46.269531 153.734375 46.351562 C 153.78125 46.582031 154.066406 46.675781 154.238281 46.519531 C 154.257812 46.503906 154.273438 46.484375 154.28125 46.46875 C 154.535156 46.214844 154.679688 45 153.285156 44.238281 C 152.683594 43.910156 152.039062 43.773438 151.371094 44 C 150.332031 44.359375 150.066406 45.914062 150.90625 46.667969 " fill-opacity="1" fill-rule="nonzero"/><path fill="rgb(38.42926%, 10.978699%, 7.839966%)" d="M 148.898438 44.25 C 148.96875 44.152344 149.074219 44.082031 149.175781 44.015625 C 150.113281 43.410156 151.09375 42.964844 152.226562 42.929688 C 153.339844 42.886719 154.367188 43.253906 155.390625 43.660156 C 156.378906 44.050781 157.414062 44.429688 158.488281 44.195312 C 159.625 43.949219 159.632812 45.007812 160.242188 45.53125 C 160.621094 45.855469 161.074219 45.78125 161.546875 45.886719 C 163.582031 46.351562 164.527344 47.703125 164.980469 49.769531 C 165.042969 50.046875 165.082031 50.328125 165.121094 50.609375 C 165.246094 51.589844 164.847656 51.113281 164.738281 50.796875 C 164.625 50.46875 164.453125 50.152344 164.21875 49.898438 C 163.832031 49.484375 163.351562 49.082031 162.789062 49.074219 C 161.769531 49.058594 161.179688 49.734375 160.183594 48.5 C 159.769531 47.988281 159.375 47.792969 158.746094 47.667969 C 158.175781 47.554688 157.789062 47.558594 157.910156 46.882812 C 157.949219 46.640625 158.175781 46.472656 158.164062 46.199219 C 158.101562 45.066406 156.011719 44.4375 155.191406 44.148438 C 154.332031 43.847656 153.445312 43.546875 152.527344 43.535156 C 151.507812 43.519531 150.617188 43.898438 149.84375 44.613281 C 149.601562 44.835938 148.621094 44.867188 148.855469 44.324219 C 148.867188 44.296875 148.882812 44.273438 148.898438 44.25 " fill-opacity="1" fill-rule="nonzero"/><path fill="rgb(38.42926%, 10.978699%, 7.839966%)" d="M 97.847656 44.394531 C 97.976562 44.375 98.101562 44.34375 98.226562 44.304688 C 98.988281 44.050781 99.714844 43.257812 99.453125 42.390625 C 99.113281 41.25 99.148438 42.027344 99 42.289062 C 98.945312 42.386719 98.832031 42.34375 98.78125 42.320312 C 98.328125 42.097656 98.675781 41.578125 98.675781 41.578125 C 98.746094 41.421875 98.574219 41.195312 98.394531 41.109375 C 97.285156 40.574219 96.117188 40.878906 95.480469 41.6875 C 94.953125 42.351562 95.042969 43.160156 95.648438 43.746094 C 95.957031 44.039062 96.351562 44.230469 96.761719 44.332031 C 97.113281 44.421875 97.488281 44.449219 97.847656 44.394531 " fill-opacity="1" fill-rule="nonzero"/><path fill="rgb(38.42926%, 10.978699%, 7.839966%)" d="M 94.070312 40.355469 C 94.96875 40.195312 95.78125 39.617188 96.261719 38.832031 C 96.457031 38.515625 96.59375 38.15625 96.632812 37.785156 C 96.640625 37.703125 96.578125 37.625 96.496094 37.628906 C 96.394531 37.636719 96.285156 37.613281 96.171875 37.554688 C 95.890625 37.410156 95.550781 37.027344 95.542969 36.683594 C 95.539062 36.621094 95.59375 36.582031 95.640625 36.636719 C 95.832031 36.859375 95.910156 37.125 96.167969 37.292969 C 96.246094 37.34375 96.328125 37.375 96.410156 37.386719 C 96.53125 37.40625 96.628906 37.292969 96.605469 37.167969 C 96.582031 37.039062 96.542969 36.910156 96.488281 36.777344 C 96.007812 35.640625 94.570312 36.148438 93.851562 36.617188 C 93.1875 37.050781 92.636719 37.726562 92.519531 38.535156 C 92.449219 39.023438 92.527344 39.632812 92.835938 40.027344 C 92.9375 40.152344 93.0625 40.257812 93.210938 40.324219 C 93.40625 40.410156 93.628906 40.410156 93.84375 40.390625 C 93.921875 40.382812 93.996094 40.371094 94.070312 40.355469 " fill-opacity="1" fill-rule="nonzero"/><path fill="rgb(38.42926%, 10.978699%, 7.839966%)" d="M 91.566406 44.933594 C 91.492188 44.089844 90.832031 44.121094 90.289062 43.699219 C 89.839844 43.355469 89.878906 42.773438 89.578125 42.328125 C 89.3125 41.933594 88.910156 41.707031 88.476562 41.5625 C 88.398438 41.535156 88.335938 41.632812 88.394531 41.691406 C 88.855469 42.171875 89.113281 42.839844 89.351562 43.402344 C 89.492188 43.734375 89.613281 44.273438 89.769531 44.601562 C 90 45.078125 90.539062 45.136719 90.914062 45.492188 C 91.054688 45.628906 91.273438 45.953125 91.421875 46.089844 C 91.492188 46.15625 91.542969 46.132812 91.539062 46.039062 C 91.527344 45.667969 91.601562 45.300781 91.566406 44.933594 " fill-opacity="1" fill-rule="nonzero"/><path fill="rgb(38.42926%, 10.978699%, 7.839966%)" d="M 104.5625 39.808594 C 104.535156 39.761719 104.503906 39.71875 104.472656 39.679688 C 104.179688 39.339844 103.761719 39.175781 103.390625 38.953125 C 103.105469 38.78125 102.824219 38.597656 102.539062 38.425781 C 101.972656 38.085938 101.371094 37.785156 100.703125 37.714844 C 99.980469 37.640625 99.269531 37.84375 98.628906 38.175781 C 97.578125 38.710938 96.777344 39.71875 95.714844 40.203125 C 94.152344 40.917969 92.375 40.890625 90.664062 40.832031 C 90.082031 40.8125 89.492188 40.636719 88.933594 40.53125 C 88.277344 40.410156 87.628906 40.246094 86.984375 40.0625 C 86.308594 39.867188 85.625 39.730469 84.941406 39.59375 C 84.304688 39.464844 83.675781 39.253906 83.019531 39.285156 C 82.726562 39.296875 82.421875 39.363281 82.164062 39.515625 C 81.949219 39.640625 81.628906 39.875 81.539062 40.113281 C 81.335938 40.652344 81.136719 41.5 81.566406 41.34375 C 81.761719 41.273438 82.859375 40.664062 83.03125 40.546875 C 83.632812 40.140625 84.367188 40.117188 85.03125 40.339844 C 85.164062 40.382812 85.296875 40.425781 85.433594 40.464844 C 86.132812 40.847656 86.929688 41.527344 86.757812 42.390625 C 86.699219 42.667969 86.53125 42.914062 86.472656 43.191406 C 86.375 43.628906 86.585938 44.113281 86.96875 44.332031 C 87.277344 44.507812 87.648438 44.511719 87.984375 44.609375 C 88.859375 44.867188 89.050781 45.582031 89.417969 46.304688 C 90.039062 47.53125 91.464844 48.230469 92.820312 48.132812 C 92.933594 48.125 93.058594 48.101562 93.121094 48.011719 C 93.273438 47.804688 92.445312 47.378906 92.300781 47.316406 C 91.785156 47.101562 91.566406 46.925781 91.472656 46.660156 C 91.28125 46.132812 90.886719 45.707031 90.398438 45.441406 C 89.90625 45.171875 89.484375 44.894531 89.269531 44.339844 C 88.960938 43.558594 88.761719 42.730469 88.335938 42 C 88.03125 41.484375 87.640625 41.183594 87.199219 40.90625 C 88.566406 41.214844 89.972656 41.515625 91.183594 42.15625 C 91.925781 42.550781 93.128906 43.371094 93.085938 44.347656 C 93.074219 44.652344 92.886719 44.933594 92.890625 45.234375 C 92.894531 45.550781 93.136719 45.777344 93.332031 45.988281 C 93.589844 46.269531 93.796875 46.65625 93.824219 47.054688 C 93.871094 47.714844 93.441406 48.175781 94.027344 48.75 C 94.503906 49.21875 95.359375 49.308594 95.914062 49.695312 C 96.460938 50.078125 96.78125 50.296875 97.128906 50.847656 C 97.265625 51.0625 98.023438 52.085938 98.390625 51.839844 C 98.605469 51.695312 98.222656 50.886719 98.152344 50.71875 C 97.929688 50.179688 97.707031 49.644531 97.570312 49.074219 C 97.417969 48.441406 97.371094 47.765625 97.539062 47.132812 C 97.625 46.804688 97.769531 46.484375 97.796875 46.144531 C 97.859375 45.429688 97.144531 44.835938 96.503906 44.710938 C 95.609375 44.53125 94.761719 44.15625 93.996094 43.660156 C 93.191406 43.136719 92.511719 42.457031 91.769531 41.855469 C 91.625 41.734375 91.695312 41.492188 91.886719 41.472656 C 92.054688 41.457031 92.222656 41.445312 92.394531 41.441406 C 93.6875 41.421875 94.921875 41.179688 96.097656 40.644531 C 96.542969 40.441406 96.972656 40.203125 97.429688 40.046875 C 98 39.847656 98.621094 39.789062 99.167969 40.078125 C 99.535156 40.273438 99.832031 40.613281 100.222656 40.75 C 100.695312 40.917969 101.257812 40.714844 101.527344 40.277344 C 101.636719 40.101562 101.707031 39.886719 101.863281 39.753906 C 102.203125 39.464844 102.75 39.726562 103.117188 39.832031 C 103.5625 39.964844 104.023438 40.175781 104.488281 40.023438 C 104.527344 40.011719 104.570312 39.992188 104.589844 39.953125 C 104.609375 39.90625 104.585938 39.851562 104.5625 39.808594 " fill-opacity="1" fill-rule="nonzero"/><path fill="rgb(38.42926%, 10.978699%, 7.839966%)" d="M 89.539062 36.085938 C 89.542969 36.121094 89.535156 36.15625 89.515625 36.1875 C 89.484375 36.234375 89.433594 36.265625 89.382812 36.292969 C 89.269531 36.351562 89.105469 36.4375 88.984375 36.351562 C 88.777344 36.210938 89.03125 35.976562 89.167969 35.921875 C 89.265625 35.882812 89.425781 35.867188 89.496094 35.964844 C 89.519531 36.003906 89.539062 36.042969 89.539062 36.085938 Z M 89.386719 40.183594 C 89.636719 40.351562 89.917969 40.492188 90.222656 40.492188 C 90.53125 40.492188 90.832031 40.339844 91.046875 40.113281 C 91.816406 39.300781 91.757812 37.757812 91.390625 36.785156 C 91.253906 36.421875 91.054688 36.074219 90.761719 35.824219 C 90.433594 35.542969 90.039062 35.464844 89.628906 35.503906 C 89.589844 35.507812 89.550781 35.511719 89.511719 35.519531 C 89.226562 35.558594 88.929688 35.660156 88.746094 35.890625 C 88.566406 36.121094 88.546875 36.5 88.773438 36.683594 C 88.960938 36.839844 89.269531 36.792969 89.410156 36.59375 C 89.503906 36.453125 89.546875 36.238281 89.710938 36.207031 C 89.851562 36.175781 89.980469 36.324219 89.976562 36.46875 C 89.976562 36.613281 89.882812 36.742188 89.777344 36.835938 C 89.410156 37.15625 88.835938 37.210938 88.425781 36.953125 C 88.371094 36.921875 88.308594 36.882812 88.253906 36.910156 C 88.230469 36.921875 88.210938 36.941406 88.195312 36.964844 C 87.875 37.429688 87.933594 38.066406 88.136719 38.59375 C 88.382812 39.234375 88.824219 39.796875 89.386719 40.183594 " fill-opacity="1" fill-rule="nonzero"/><path fill="rgb(38.42926%, 10.978699%, 7.839966%)" d="M 165.863281 40.996094 C 165.898438 40.921875 165.929688 40.84375 165.953125 40.765625 C 166.09375 40.285156 165.953125 39.625 165.421875 39.453125 C 164.726562 39.226562 165.128906 39.480469 165.210938 39.652344 C 165.238281 39.714844 165.179688 39.757812 165.148438 39.773438 C 164.875 39.933594 164.734375 39.570312 164.734375 39.566406 C 164.683594 39.476562 164.507812 39.484375 164.398438 39.546875 C 163.738281 39.933594 163.476562 40.648438 163.660156 41.265625 C 163.808594 41.773438 164.25 42.015625 164.757812 41.90625 C 165.015625 41.851562 165.25 41.714844 165.449219 41.539062 C 165.617188 41.386719 165.765625 41.203125 165.863281 40.996094 " fill-opacity="1" fill-rule="nonzero"/><path fill="rgb(38.42926%, 10.978699%, 7.839966%)" d="M 147.378906 48.90625 C 147.4375 48.972656 147.503906 49.035156 147.578125 49.089844 C 148.015625 49.421875 148.738281 49.527344 149.117188 49.039062 C 149.617188 48.398438 149.199219 48.722656 148.996094 48.738281 C 148.921875 48.746094 148.902344 48.667969 148.894531 48.628906 C 148.839844 48.28125 149.261719 48.273438 149.261719 48.273438 C 149.375 48.253906 149.4375 48.066406 149.414062 47.933594 C 149.273438 47.089844 148.648438 46.542969 147.949219 46.496094 C 147.375 46.457031 146.960938 46.824219 146.875 47.398438 C 146.832031 47.691406 146.882812 47.988281 146.984375 48.265625 C 147.074219 48.5 147.207031 48.726562 147.378906 48.90625 " fill-opacity="1" fill-rule="nonzero"/><path fill="rgb(38.42926%, 10.978699%, 7.839966%)" d="M 133.296875 46.332031 C 133.195312 46.089844 133.128906 45.832031 133.023438 45.589844 C 132.757812 44.984375 132.332031 44.503906 131.78125 44.273438 C 131.632812 44.207031 131.464844 44.207031 131.304688 44.253906 C 131.160156 44.300781 131.003906 44.328125 130.839844 44.339844 C 130.410156 44.371094 130.019531 44.289062 129.609375 44.183594 C 129.179688 44.070312 128.929688 44.148438 128.605469 44.449219 C 128.417969 44.628906 128.234375 44.785156 128.046875 44.917969 C 127.976562 44.96875 128 45.085938 128.089844 45.101562 C 128.355469 45.144531 128.617188 45.199219 128.871094 45.253906 C 130.183594 45.53125 131.492188 46.039062 132.65625 46.707031 C 133.894531 47.417969 134.886719 48.3125 135.558594 49.597656 C 135.597656 49.667969 135.628906 49.734375 135.664062 49.804688 C 135.699219 49.882812 135.816406 49.84375 135.800781 49.757812 C 135.582031 48.597656 135.140625 47.46875 134.046875 46.976562 C 133.726562 46.835938 133.4375 46.675781 133.296875 46.332031 " fill-opacity="1" fill-rule="nonzero"/><path fill="rgb(38.42926%, 10.978699%, 7.839966%)" d="M 132.855469 50.265625 C 132.65625 50.359375 132.425781 50.566406 132.171875 50.785156 C 132.097656 50.851562 132.175781 50.972656 132.265625 50.929688 C 132.492188 50.820312 132.71875 50.714844 132.976562 50.71875 C 133.609375 50.730469 134.132812 50.992188 134.597656 51.417969 C 134.851562 51.652344 135.085938 51.933594 135.28125 52.234375 C 135.316406 52.292969 135.40625 52.261719 135.398438 52.195312 C 135.359375 51.746094 135.296875 51.304688 134.976562 50.910156 C 134.511719 50.328125 133.574219 49.9375 132.855469 50.265625 " fill-opacity="1" fill-rule="nonzero"/><path fill="rgb(38.42926%, 10.978699%, 7.839966%)" d="M 142.042969 44.8125 C 142.027344 44.839844 141.976562 44.855469 141.941406 44.855469 C 141.808594 44.863281 141.804688 44.589844 141.804688 44.585938 C 141.808594 44.691406 141.59375 44.6875 141.539062 44.640625 C 141.507812 44.613281 141.5 44.5625 141.503906 44.519531 C 141.519531 44.425781 141.585938 44.34375 141.671875 44.304688 C 141.738281 44.277344 141.792969 44.28125 141.828125 44.3125 L 141.84375 44.324219 C 141.886719 44.359375 141.894531 44.414062 141.863281 44.476562 C 141.859375 44.484375 141.855469 44.492188 141.851562 44.5 C 141.851562 44.5 142.078125 44.589844 142.035156 44.28125 C 142.019531 44.171875 141.855469 44.027344 141.773438 44.007812 C 141.675781 43.984375 141.554688 44.023438 141.449219 44.113281 C 141.273438 44.261719 141.199219 44.527344 141.277344 44.75 C 141.332031 44.910156 141.441406 44.964844 141.570312 45.03125 C 141.613281 45.054688 141.660156 45.082031 141.710938 45.109375 C 141.746094 45.136719 141.757812 45.175781 141.738281 45.214844 C 141.710938 45.265625 141.636719 45.304688 141.601562 45.3125 C 141.363281 45.347656 141.136719 45.207031 141.019531 44.953125 C 140.984375 44.875 140.960938 44.792969 140.957031 44.710938 C 140.933594 44.390625 141.105469 44.058594 141.386719 43.894531 C 141.617188 43.757812 141.945312 43.691406 142.121094 43.945312 C 142.289062 44.195312 142.199219 44.59375 142.042969 44.8125 Z M 142.359375 43.90625 C 142.292969 43.710938 142.121094 43.441406 141.972656 43.273438 C 141.59375 42.835938 141.035156 42.480469 140.472656 42.289062 C 140.378906 42.253906 140.277344 42.277344 140.203125 42.34375 C 139.910156 42.609375 139.238281 43.097656 137.96875 42.941406 C 137.839844 42.925781 137.714844 42.96875 137.625 43.058594 C 137.625 43.058594 137.621094 43.0625 137.621094 43.0625 C 137.601562 43.078125 137.585938 43.089844 137.578125 43.101562 C 137.5625 43.113281 137.550781 43.117188 137.539062 43.132812 C 137.535156 43.132812 137.535156 43.136719 137.53125 43.136719 C 137.378906 43.28125 137.363281 43.511719 137.484375 43.679688 C 137.851562 44.1875 137.898438 45.078125 138.035156 45.210938 C 138.972656 46.140625 140.800781 46.324219 141.898438 45.589844 C 142.4375 45.226562 142.558594 44.503906 142.359375 43.90625 " fill-opacity="1" fill-rule="nonzero"/><g clip-path="url(#id3)"><path fill="rgb(38.42926%, 10.978699%, 7.839966%)" d="M 135.988281 51.257812 C 135.988281 51.25 135.984375 51.234375 135.984375 51.222656 C 135.949219 51.09375 135.910156 50.96875 135.875 50.847656 C 135.484375 49.574219 134.742188 48.460938 133.683594 47.660156 C 132.847656 47.027344 131.914062 46.53125 130.941406 46.152344 C 130.460938 45.964844 129.972656 45.808594 129.472656 45.671875 C 129.125 45.574219 128.773438 45.488281 128.421875 45.40625 C 128.0625 45.324219 127.699219 45.246094 127.328125 45.28125 C 127.195312 45.296875 127.058594 45.324219 126.925781 45.355469 C 126.8125 45.382812 126.695312 45.378906 126.578125 45.378906 C 126.15625 45.375 125.742188 45.171875 125.375 44.960938 C 125.101562 44.804688 124.847656 44.519531 124.574219 44.316406 C 124.503906 44.269531 124.523438 44.164062 124.601562 44.140625 C 124.742188 44.101562 124.890625 44.054688 125.046875 44.007812 C 125.777344 43.773438 126.71875 43.320312 127.5 43.386719 C 128.34375 43.457031 129.171875 43.835938 130 43.976562 C 130.898438 44.132812 131.878906 43.957031 132.769531 43.804688 C 133.128906 43.746094 133.488281 43.660156 133.832031 43.527344 C 134.257812 43.363281 134.59375 43.039062 135.019531 42.886719 C 135.445312 42.730469 135.921875 42.71875 136.355469 42.863281 C 136.449219 42.894531 136.546875 42.933594 136.644531 42.902344 C 136.707031 42.882812 136.761719 42.832031 136.808594 42.78125 C 136.832031 42.757812 136.851562 42.734375 136.863281 42.707031 C 136.878906 42.675781 136.878906 42.640625 136.871094 42.605469 C 136.84375 42.472656 136.734375 42.371094 136.613281 42.320312 C 136.320312 42.203125 135.996094 42.3125 135.707031 42.386719 C 135.398438 42.460938 135.089844 42.542969 134.78125 42.628906 C 133.820312 42.886719 132.824219 43.15625 131.804688 43.195312 C 131.179688 43.21875 129.527344 43.285156 129.148438 42.453125 C 129.121094 42.398438 129.101562 42.34375 129.089844 42.28125 C 128.964844 41.714844 129.546875 41.699219 130.050781 41.578125 C 131.605469 41.203125 133.128906 39.984375 132.75 38.496094 C 132.414062 37.175781 130.875 35.910156 130.46875 35.121094 C 129.683594 33.609375 130.25 32.328125 129.707031 32.980469 C 128.484375 34.449219 129.722656 36.453125 129.851562 38.007812 C 129.914062 38.789062 129.789062 39.601562 129.363281 40.261719 C 128.179688 42.109375 125.929688 42.960938 123.71875 43.285156 C 123.570312 43.308594 123.519531 43.089844 123.664062 43.039062 C 124.167969 42.871094 124.699219 42.667969 125.257812 42.421875 C 125.601562 42.265625 125.929688 42.078125 126.230469 41.851562 C 126.953125 41.3125 127.5 40.582031 127.925781 39.785156 C 128.148438 39.363281 128.324219 38.914062 128.523438 38.472656 C 128.660156 38.164062 128.792969 37.84375 128.871094 37.511719 C 128.917969 37.316406 128.945312 37.113281 128.945312 36.910156 C 128.941406 36.839844 128.925781 36.769531 128.890625 36.707031 C 128.796875 36.5625 128.675781 36.601562 128.5625 36.667969 C 128.0625 36.957031 127.847656 37.710938 127.605469 38.203125 C 127.351562 38.722656 127 39.386719 126.355469 39.433594 C 125.953125 39.464844 124.894531 39.132812 124.589844 39.550781 C 124.457031 39.730469 124.519531 40.121094 124.484375 40.339844 C 124.339844 41.257812 123.714844 41.757812 122.902344 42.238281 C 122.230469 42.632812 121.527344 42.988281 120.78125 43.207031 C 120.410156 43.316406 120.027344 43.394531 119.636719 43.414062 C 119.328125 43.425781 118.894531 43.3125 118.621094 43.5 C 118.21875 43.773438 118.632812 44.542969 118.875 44.789062 C 119.398438 45.324219 120.253906 45.046875 120.882812 44.90625 C 122.75 44.492188 124.863281 44.507812 125.734375 46.496094 C 125.988281 47.078125 126.183594 47.738281 126.648438 48.191406 C 126.898438 48.4375 127.21875 48.605469 127.566406 48.632812 C 127.929688 48.660156 128.289062 48.519531 128.652344 48.578125 C 129.265625 48.679688 129.492188 49.339844 129.730469 49.835938 C 129.902344 50.1875 130.058594 50.496094 130.382812 50.71875 C 130.546875 50.832031 130.773438 50.953125 131.007812 51.039062 C 131.246094 51.128906 131.515625 51.085938 131.71875 50.925781 C 131.890625 50.792969 132.046875 50.648438 132.171875 50.546875 C 132.605469 50.191406 132.964844 49.925781 133.546875 49.921875 C 134.234375 49.917969 134.882812 50.265625 135.265625 50.851562 C 135.527344 51.257812 135.585938 51.730469 135.609375 52.203125 C 135.621094 52.429688 135.625 52.671875 135.664062 52.898438 C 135.707031 53.152344 135.816406 53.378906 135.925781 53.609375 C 135.992188 53.753906 136.082031 53.839844 136.140625 53.628906 C 136.34375 52.925781 136.203125 52.058594 136.007812 51.316406 C 135.996094 51.304688 135.992188 51.289062 135.988281 51.257812 " fill-opacity="1" fill-rule="nonzero"/></g><path fill="rgb(38.42926%, 10.978699%, 7.839966%)" d="M 139.984375 38.070312 C 140.160156 37.980469 140.363281 38.035156 140.546875 38.226562 C 140.585938 38.269531 140.578125 38.328125 140.535156 38.363281 C 140.492188 38.398438 140.425781 38.417969 140.378906 38.382812 C 140.242188 38.28125 140.140625 38.253906 140.117188 38.277344 C 140.050781 38.339844 140.0625 38.46875 140.070312 38.523438 C 140.085938 38.640625 140.152344 38.746094 140.238281 38.800781 C 140.34375 38.867188 140.46875 38.851562 140.597656 38.832031 C 140.628906 38.828125 140.660156 38.824219 140.691406 38.820312 C 140.742188 38.816406 140.785156 38.835938 140.804688 38.878906 C 140.828125 38.929688 140.808594 38.992188 140.753906 39.027344 C 140.574219 39.136719 140.351562 39.167969 140.15625 39.109375 C 139.992188 39.058594 139.863281 38.949219 139.792969 38.800781 C 139.757812 38.722656 139.738281 38.632812 139.738281 38.539062 C 139.734375 38.371094 139.800781 38.160156 139.984375 38.070312 Z M 140.554688 38.734375 C 140.515625 38.785156 140.433594 38.835938 140.363281 38.824219 C 140.269531 38.808594 140.230469 38.757812 140.210938 38.714844 C 140.207031 38.707031 140.203125 38.699219 140.203125 38.695312 C 140.171875 38.605469 140.234375 38.515625 140.320312 38.492188 C 140.53125 38.433594 140.570312 38.59375 140.574219 38.609375 C 140.59375 38.644531 140.585938 38.691406 140.554688 38.734375 Z M 138.003906 42.5 C 138.296875 42.582031 138.617188 42.585938 138.917969 42.515625 C 139.519531 42.375 140.03125 41.972656 140.4375 41.503906 C 140.757812 41.128906 141.03125 40.699219 141.167969 40.222656 C 141.367188 39.527344 141.269531 38.761719 140.71875 38.265625 C 140.324219 37.914062 139.808594 37.777344 139.289062 37.851562 C 138.253906 38 137.25 38.890625 136.964844 39.929688 C 136.824219 40.421875 136.769531 41.140625 137.023438 41.691406 C 137.214844 42.113281 137.585938 42.382812 138.003906 42.5 " fill-opacity="1" fill-rule="nonzero"/><path fill="rgb(38.42926%, 10.978699%, 7.839966%)" d="M 137.226562 45.652344 C 137.230469 45.695312 137.207031 45.738281 137.164062 45.773438 C 137.105469 45.816406 137.015625 45.84375 136.953125 45.8125 C 136.835938 45.75 136.703125 45.738281 136.59375 45.78125 C 136.511719 45.8125 136.445312 45.875 136.40625 45.964844 C 136.382812 46.011719 136.371094 46.070312 136.433594 46.113281 C 136.464844 46.132812 136.539062 46.125 136.597656 46.117188 C 136.605469 46.117188 136.613281 46.117188 136.621094 46.117188 C 136.589844 46.089844 136.582031 46.0625 136.578125 46.042969 C 136.566406 45.953125 136.667969 45.867188 136.746094 45.851562 C 136.796875 45.839844 136.863281 45.855469 136.90625 45.882812 C 136.949219 45.910156 136.960938 45.945312 136.960938 45.964844 C 136.964844 45.992188 136.964844 46.039062 136.90625 46.089844 L 136.882812 46.109375 C 136.851562 46.136719 136.8125 46.152344 136.773438 46.15625 C 136.789062 46.175781 136.804688 46.195312 136.804688 46.21875 C 136.8125 46.269531 136.789062 46.320312 136.734375 46.355469 C 136.507812 46.503906 136.28125 46.515625 136.113281 46.398438 C 136.027344 46.332031 135.96875 46.242188 135.953125 46.132812 C 135.941406 46.054688 135.957031 45.976562 135.992188 45.902344 C 136.085938 45.703125 136.253906 45.558594 136.472656 45.488281 C 136.710938 45.414062 136.972656 45.445312 137.171875 45.574219 C 137.210938 45.597656 137.222656 45.628906 137.226562 45.652344 Z M 135.90625 43.050781 C 135.332031 42.914062 134.714844 43.125 134.484375 43.703125 C 134.394531 43.933594 134.371094 44.1875 134.390625 44.4375 C 134.402344 44.5625 134.421875 44.6875 134.449219 44.808594 C 134.542969 45.214844 134.71875 45.605469 134.984375 45.929688 C 135.25 46.253906 135.601562 46.507812 135.992188 46.632812 C 136.304688 46.730469 136.65625 46.742188 136.945312 46.59375 C 137.238281 46.445312 137.4375 46.144531 137.535156 45.824219 C 137.878906 44.675781 137.054688 43.316406 135.90625 43.050781 " fill-opacity="1" fill-rule="nonzero"/><path fill="rgb(38.42926%, 10.978699%, 7.839966%)" d="M 110.539062 48.195312 C 110.449219 47.851562 110.171875 47.542969 109.90625 47.320312 C 109.65625 47.109375 109.296875 46.714844 109.15625 46.402344 C 109.027344 46.113281 108.941406 45.792969 108.886719 45.46875 C 108.871094 45.386719 108.753906 45.382812 108.738281 45.46875 C 108.601562 46.1875 108.324219 46.894531 107.890625 47.476562 C 107.550781 47.933594 107.074219 48.351562 107.222656 48.992188 C 107.328125 49.464844 107.824219 49.851562 108.011719 50.308594 C 108.195312 50.753906 108.1875 51.132812 108.183594 51.601562 C 108.183594 51.769531 108.199219 51.941406 108.230469 52.109375 C 108.261719 52.273438 108.308594 52.648438 108.519531 52.714844 C 108.542969 52.722656 108.570312 52.726562 108.59375 52.714844 C 108.613281 52.703125 108.625 52.6875 108.636719 52.671875 C 108.808594 52.410156 108.851562 52.035156 108.902344 51.730469 C 108.964844 51.378906 109 51.011719 109.113281 50.671875 C 109.207031 50.390625 109.347656 50.121094 109.527344 49.890625 C 109.71875 49.648438 109.960938 49.472656 110.191406 49.277344 C 110.382812 49.113281 110.527344 48.921875 110.558594 48.667969 C 110.578125 48.511719 110.578125 48.347656 110.539062 48.195312 " fill-opacity="1" fill-rule="nonzero"/><g clip-path="url(#id4)"><path fill="rgb(38.42926%, 10.978699%, 7.839966%)" d="M 161.292969 37.59375 C 160.765625 37.246094 160.128906 37.414062 159.542969 37.308594 C 157.503906 36.945312 156.484375 35.984375 154.769531 36.523438 C 153.644531 36.882812 153.117188 38.253906 152.191406 38.789062 C 151.242188 39.339844 149.28125 39.042969 148.480469 39.953125 C 147.898438 40.613281 148.035156 40.949219 147.257812 41.417969 C 146.332031 41.980469 145.097656 42.007812 144.003906 42.019531 C 143.871094 42.023438 143.816406 41.851562 143.921875 41.769531 C 144.570312 41.273438 145.269531 40.816406 146.070312 40.761719 C 146.332031 40.742188 146.601562 40.769531 146.863281 40.738281 C 147.125 40.707031 147.398438 40.605469 147.554688 40.390625 C 147.777344 40.085938 147.789062 39.679688 147.90625 39.320312 C 148.273438 38.21875 149.109375 38.667969 149.796875 37.984375 C 150.164062 37.621094 150.285156 36.519531 150.285156 36 C 150.285156 35.480469 150.234375 34.9375 150.4375 34.464844 C 150.667969 33.929688 151.207031 33.535156 151.210938 32.925781 C 151.136719 32.59375 150.8125 32.75 150.675781 32.804688 C 150.484375 32.882812 150.304688 32.980469 150.132812 33.089844 C 149.140625 33.71875 147.976562 33.957031 146.996094 34.582031 C 146.753906 34.738281 146.527344 34.929688 146.375 35.179688 C 146.15625 35.550781 146.132812 36 146.097656 36.429688 C 146.0625 36.871094 145.996094 37.347656 145.699219 37.675781 C 145.328125 38.09375 144.695312 38.171875 144.300781 38.566406 C 143.746094 39.117188 143.84375 39.996094 143.609375 40.691406 C 143.367188 41.410156 142.699219 42.019531 141.980469 42.21875 C 141.949219 42.226562 141.921875 42.234375 141.894531 42.242188 C 141.777344 42.269531 141.746094 42.421875 141.839844 42.496094 C 142.011719 42.632812 142.167969 42.785156 142.3125 42.949219 C 142.34375 42.988281 142.378906 43.019531 142.417969 43.046875 C 142.433594 43.066406 142.449219 43.082031 142.460938 43.089844 C 142.734375 43.210938 143.105469 43.140625 143.378906 43.273438 C 143.703125 43.433594 144.042969 43.625 144.207031 43.953125 C 144.445312 44.433594 144.214844 45.011719 144.265625 45.550781 C 144.3125 46.035156 144.609375 46.492188 145.03125 46.722656 C 145.457031 46.957031 145.996094 46.957031 146.421875 46.730469 C 146.796875 46.527344 147.097656 46.15625 147.515625 46.070312 C 147.777344 46.015625 148.050781 46.085938 148.320312 46.085938 C 148.78125 46.082031 149.234375 45.84375 149.515625 45.472656 C 149.582031 45.386719 149.519531 45.269531 149.414062 45.277344 C 149.292969 45.285156 149.160156 45.253906 149.054688 45.195312 C 148.847656 45.078125 148.699219 44.875 148.546875 44.691406 C 148.398438 44.503906 148.222656 44.320312 147.996094 44.253906 C 147.488281 44.105469 147.015625 44.585938 146.492188 44.625 C 145.875 44.671875 145.402344 44.121094 144.933594 43.714844 C 144.628906 43.453125 144.25 43.171875 143.84375 42.949219 C 143.96875 42.933594 144.089844 42.917969 144.214844 42.902344 C 144.253906 42.898438 144.296875 42.894531 144.335938 42.890625 C 144.75 42.855469 145.164062 42.835938 145.582031 42.84375 C 145.851562 42.84375 146.132812 42.863281 146.359375 43.011719 C 146.660156 43.207031 146.792969 43.597656 147.085938 43.804688 C 148.238281 44.621094 150.109375 42.40625 151.347656 42.378906 C 152.359375 42.351562 153.269531 42.484375 154.378906 42.757812 C 156.277344 43.222656 157.804688 41.226562 158.839844 39.933594 C 159.015625 39.714844 159.195312 39.46875 159.183594 39.191406 C 159.179688 39.113281 159.164062 39.03125 159.113281 38.972656 C 159.058594 38.910156 158.972656 38.878906 158.894531 38.851562 C 158.421875 38.699219 157.921875 38.59375 157.429688 38.644531 C 156.179688 38.773438 155.488281 39.871094 154.367188 40.25 C 153.941406 40.390625 153.492188 40.445312 153.054688 40.535156 C 152.714844 40.605469 152.421875 40.703125 152.117188 40.878906 C 151.871094 41.023438 151.621094 41.15625 151.359375 41.273438 C 151.136719 41.375 150.871094 41.496094 150.621094 41.453125 C 150.53125 41.441406 150.449219 41.398438 150.390625 41.328125 C 150.367188 41.300781 150.320312 41.238281 150.320312 41.203125 C 150.320312 41.148438 150.40625 41.074219 150.441406 41.035156 C 150.6875 40.753906 151.019531 40.597656 151.378906 40.527344 C 151.765625 40.453125 152.160156 40.453125 152.546875 40.390625 C 152.949219 40.324219 153.324219 40.1875 153.679688 39.992188 C 154.371094 39.609375 154.953125 39.0625 155.628906 38.652344 C 156.683594 38.011719 157.90625 38.238281 159.066406 38.292969 C 159.84375 38.332031 160.664062 38.273438 161.316406 37.839844 C 161.34375 37.824219 161.367188 37.796875 161.378906 37.765625 C 161.414062 37.683594 161.351562 37.628906 161.292969 37.59375 " fill-opacity="1" fill-rule="nonzero"/></g><path fill="rgb(38.42926%, 10.978699%, 7.839966%)" d="M 156.816406 48.882812 C 157.292969 49.1875 157.601562 49.746094 157.59375 50.320312 C 157.59375 50.5 157.679688 50.671875 157.835938 50.753906 C 158.152344 50.925781 158.394531 50.554688 158.507812 50.253906 C 158.644531 49.890625 158.789062 49.515625 158.804688 49.125 C 158.824219 48.734375 158.695312 48.316406 158.386719 48.082031 C 158.082031 47.84375 157.597656 47.773438 157.480469 47.398438 C 157.433594 47.242188 157.46875 47.078125 157.484375 46.914062 C 157.558594 46.117188 157.054688 45.320312 156.347656 44.976562 C 156.210938 44.910156 156.078125 45.070312 156.164062 45.199219 C 156.464844 45.640625 156.511719 46.273438 156.214844 46.722656 C 155.964844 47.105469 155.496094 47.40625 155.578125 47.886719 C 155.605469 48.039062 155.683594 48.175781 155.789062 48.28125 C 156.078125 48.578125 156.480469 48.667969 156.816406 48.882812 " fill-opacity="1" fill-rule="nonzero"/><path fill="rgb(38.42926%, 10.978699%, 7.839966%)" d="M 98.84375 44.589844 C 99.042969 44.484375 99.226562 44.34375 99.386719 44.179688 C 99.621094 43.929688 99.730469 43.582031 99.984375 43.351562 C 99.988281 43.351562 99.988281 43.351562 99.988281 43.347656 C 100.078125 43.296875 100.199219 43.304688 100.285156 43.378906 C 100.625 43.667969 100.871094 44.074219 100.980469 44.515625 C 101.074219 44.886719 101.058594 45.324219 100.808594 45.613281 C 100.519531 45.949219 100.007812 45.984375 99.578125 45.890625 C 99.046875 45.773438 98.550781 45.492188 98.167969 45.101562 C 97.929688 44.863281 98.414062 44.757812 98.546875 44.714844 C 98.648438 44.679688 98.75 44.636719 98.84375 44.589844 " fill-opacity="1" fill-rule="nonzero"/><path fill="rgb(38.42926%, 10.978699%, 7.839966%)" d="M 115.007812 40.648438 C 115.105469 40.714844 115.203125 40.78125 115.292969 40.863281 C 115.835938 41.34375 116.164062 42.265625 115.644531 42.894531 C 114.960938 43.722656 115.265625 43.085938 115.230469 42.816406 C 115.21875 42.71875 115.109375 42.710938 115.058594 42.714844 C 114.605469 42.734375 114.710938 43.292969 114.710938 43.292969 C 114.71875 43.445312 114.496094 43.574219 114.316406 43.582031 C 113.207031 43.628906 112.339844 42.957031 112.089844 42.050781 C 111.886719 41.3125 112.242188 40.667969 112.949219 40.402344 C 113.308594 40.265625 113.703125 40.25 114.078125 40.308594 C 114.40625 40.363281 114.726562 40.476562 115.007812 40.648438 " fill-opacity="1" fill-rule="nonzero"/><path fill="rgb(38.42926%, 10.978699%, 7.839966%)" d="M 111.09375 43.601562 C 111.964844 43.90625 112.683594 44.609375 113.039062 45.46875 C 113.183594 45.816406 113.265625 46.195312 113.246094 46.570312 C 113.242188 46.65625 113.167969 46.71875 113.085938 46.703125 C 112.984375 46.679688 112.871094 46.6875 112.75 46.726562 C 112.449219 46.824219 112.050781 47.152344 111.988281 47.492188 C 111.980469 47.554688 112.027344 47.601562 112.082031 47.554688 C 112.304688 47.363281 112.425781 47.113281 112.707031 46.988281 C 112.792969 46.949219 112.878906 46.929688 112.960938 46.929688 C 113.085938 46.933594 113.167969 47.0625 113.125 47.179688 C 113.078125 47.304688 113.019531 47.429688 112.945312 47.550781 C 112.292969 48.605469 110.941406 47.871094 110.296875 47.285156 C 109.703125 46.75 109.257812 45.992188 109.269531 45.167969 C 109.277344 44.671875 109.445312 44.078125 109.816406 43.738281 C 109.9375 43.625 110.078125 43.539062 110.234375 43.5 C 110.445312 43.445312 110.664062 43.480469 110.875 43.535156 C 110.949219 43.554688 111.023438 43.578125 111.09375 43.601562 " fill-opacity="1" fill-rule="nonzero"/><path fill="rgb(38.42926%, 10.978699%, 7.839966%)" d="M 109.15625 39.058594 C 109.15625 39.132812 109.238281 39.179688 109.304688 39.144531 C 109.625 38.957031 109.9375 38.742188 110.089844 38.390625 C 110.289062 37.929688 110.261719 37.347656 110.167969 36.867188 C 110.078125 36.402344 109.996094 35.9375 110.265625 35.519531 C 110.578125 35.027344 110.941406 34.589844 110.621094 33.996094 C 110.523438 33.8125 110.378906 33.628906 110.230469 33.441406 C 110.199219 33.402344 110.140625 33.425781 110.140625 33.476562 C 110.160156 34.246094 109.816406 34.980469 109.5 35.714844 C 109.046875 36.761719 109.148438 37.925781 109.15625 39.058594 " fill-opacity="1" fill-rule="nonzero"/><g clip-path="url(#id5)"><path fill="rgb(38.42926%, 10.978699%, 7.839966%)" d="M 121.5 45.683594 C 121.484375 45.640625 121.445312 45.617188 121.410156 45.597656 C 120.96875 45.371094 120.480469 45.507812 120.015625 45.566406 C 119.632812 45.617188 119.050781 45.789062 118.753906 45.449219 C 118.621094 45.292969 118.582031 45.066406 118.5 44.875 C 118.300781 44.394531 117.773438 44.105469 117.277344 44.191406 C 116.867188 44.265625 116.519531 44.558594 116.125 44.691406 C 115.53125 44.894531 114.929688 44.738281 114.390625 44.449219 C 113.957031 44.21875 113.566406 43.914062 113.160156 43.640625 C 111.984375 42.863281 110.691406 42.472656 109.328125 42.207031 C 109.203125 42.179688 109.066406 42.148438 108.984375 42.050781 C 108.734375 41.746094 109.460938 41.40625 109.636719 41.28125 C 110.351562 40.777344 111.167969 40.429688 112.011719 40.21875 C 112.644531 40.0625 113.667969 40.003906 113.671875 39.097656 C 113.675781 38.824219 113.582031 38.558594 113.539062 38.285156 C 113.453125 37.769531 113.539062 37.234375 113.710938 36.738281 C 113.863281 36.296875 114.082031 35.882812 114.300781 35.472656 C 114.367188 35.34375 114.734375 34.726562 114.574219 34.59375 C 114.300781 34.367188 113.617188 35.128906 113.492188 35.289062 C 113.171875 35.699219 112.898438 35.855469 112.433594 36.113281 C 111.960938 36.382812 111.273438 36.386719 110.859375 36.722656 C 110.34375 37.140625 110.65625 37.539062 110.570312 38.0625 C 110.515625 38.378906 110.320312 38.671875 110.09375 38.878906 C 109.921875 39.03125 109.710938 39.195312 109.683594 39.441406 C 109.644531 39.855469 109.828125 40.242188 109.625 40.632812 C 109.507812 40.859375 109.304688 41.03125 109.078125 41.152344 C 107.984375 41.738281 106.46875 41.828125 105.253906 41.785156 C 105.164062 41.785156 105.058594 41.773438 104.996094 41.707031 C 104.867188 41.570312 104.996094 41.351562 105.128906 41.226562 C 105.464844 40.90625 105.980469 40.523438 106.453125 40.453125 C 107.210938 40.335938 107.957031 40.824219 108.589844 40.15625 C 109 39.722656 108.9375 39.035156 108.972656 38.480469 C 109.019531 37.824219 109.011719 37.148438 109.117188 36.5 C 109.214844 35.894531 109.414062 35.363281 109.671875 34.8125 C 110.066406 33.976562 110.136719 33.078125 109.597656 32.273438 C 109.582031 32.25 109.566406 32.230469 109.542969 32.21875 C 109.480469 32.179688 109.425781 32.199219 109.386719 32.242188 C 109.367188 32.261719 109.355469 32.285156 109.34375 32.308594 C 109.25 32.519531 109.339844 32.789062 109.21875 32.988281 C 109.132812 33.121094 108.972656 33.179688 108.871094 33.304688 C 108.773438 33.421875 108.746094 33.582031 108.695312 33.722656 C 108.585938 34.023438 108.316406 34.042969 108.066406 34.179688 C 107.835938 34.304688 107.75 34.527344 107.757812 34.789062 C 107.765625 35.027344 107.820312 35.28125 107.722656 35.496094 C 107.582031 35.816406 107.195312 35.910156 106.875 36.039062 C 106.617188 36.144531 106.375 36.304688 106.207031 36.527344 C 105.949219 36.878906 105.910156 37.328125 105.992188 37.746094 C 106.140625 38.503906 106.441406 39.097656 105.898438 39.777344 C 105.421875 40.371094 104.683594 40.882812 104.015625 41.226562 C 102.847656 41.828125 101.515625 42.007812 100.21875 41.890625 C 100.050781 41.871094 99.9375 42 99.972656 42.171875 C 100 42.304688 100.023438 42.4375 100.039062 42.574219 C 100.066406 42.792969 100.230469 42.964844 100.441406 43 C 100.953125 43.085938 101.496094 43.140625 101.980469 43.121094 C 102.851562 43.085938 103.722656 42.8125 104.589844 42.710938 C 105.621094 42.589844 106.746094 42.460938 107.78125 42.585938 C 109.492188 42.800781 111.261719 43.058594 112.707031 44.015625 C 113.6875 44.671875 114.332031 45.796875 115.292969 46.503906 C 115.878906 46.933594 116.554688 47.25 117.285156 47.289062 C 117.957031 47.324219 118.605469 47.125 119.222656 46.875 C 119.53125 46.75 119.839844 46.613281 120.152344 46.488281 C 120.554688 46.324219 120.996094 46.226562 121.339844 45.9375 C 121.382812 45.898438 121.421875 45.859375 121.457031 45.816406 C 121.484375 45.777344 121.511719 45.730469 121.5 45.683594 " fill-opacity="1" fill-rule="nonzero"/></g><path fill="rgb(38.42926%, 10.978699%, 7.839966%)" d="M 105.863281 47.242188 C 105.777344 47.332031 105.621094 47.285156 105.53125 47.234375 C 105.402344 47.15625 105.183594 46.886719 105.414062 46.773438 C 105.550781 46.707031 105.699219 46.820312 105.800781 46.898438 C 105.847656 46.933594 105.894531 46.972656 105.917969 47.023438 C 105.933594 47.058594 105.933594 47.09375 105.925781 47.128906 C 105.917969 47.171875 105.890625 47.207031 105.863281 47.242188 Z M 104.917969 44.410156 C 104.632812 44.902344 104.476562 45.527344 104.726562 46.039062 C 104.734375 46.0625 104.75 46.089844 104.773438 46.105469 C 104.824219 46.140625 104.890625 46.113281 104.949219 46.085938 C 105.398438 45.898438 105.964844 46.042969 106.277344 46.417969 C 106.367188 46.53125 106.441406 46.671875 106.421875 46.816406 C 106.402344 46.960938 106.25 47.089844 106.113281 47.039062 C 105.957031 46.976562 105.949219 46.757812 105.875 46.601562 C 105.769531 46.382812 105.464844 46.289062 105.253906 46.410156 C 105.003906 46.558594 104.960938 46.941406 105.105469 47.195312 C 105.253906 47.453125 105.53125 47.601562 105.8125 47.691406 C 105.847656 47.703125 105.882812 47.710938 105.921875 47.722656 C 106.324219 47.828125 106.730469 47.8125 107.101562 47.582031 C 107.429688 47.378906 107.679688 47.066406 107.875 46.730469 C 108.394531 45.820312 108.6875 44.292969 108.050781 43.367188 C 107.871094 43.105469 107.59375 42.902344 107.285156 42.855469 C 106.988281 42.804688 106.683594 42.898438 106.410156 43.03125 C 105.789062 43.324219 105.261719 43.8125 104.917969 44.410156 " fill-opacity="1" fill-rule="nonzero"/><path fill="rgb(38.42926%, 10.978699%, 7.839966%)" d="M 165.527344 46.304688 C 165.625 46.25 165.753906 46.238281 165.847656 46.308594 C 165.957031 46.398438 165.953125 46.542969 165.910156 46.667969 C 165.894531 46.710938 165.824219 46.660156 165.832031 46.625 C 165.839844 46.558594 165.855469 46.417969 165.792969 46.394531 C 165.730469 46.371094 165.65625 46.40625 165.601562 46.441406 C 165.53125 46.492188 165.480469 46.570312 165.472656 46.660156 C 165.460938 46.777344 165.542969 46.871094 165.605469 46.964844 C 165.632812 47.007812 165.585938 47.042969 165.542969 47.015625 C 165.28125 46.851562 165.226562 46.460938 165.527344 46.304688 Z M 163.15625 46.167969 C 163.394531 46.296875 163.628906 46.449219 163.84375 46.621094 C 164.136719 46.859375 164.390625 47.207031 164.480469 47.585938 C 164.503906 47.683594 164.59375 47.746094 164.691406 47.734375 C 165.222656 47.660156 165.765625 47.425781 165.984375 46.9375 C 166.042969 46.816406 166.066406 46.679688 166.058594 46.546875 C 166.039062 45.949219 165.632812 45.429688 165.121094 45.160156 C 164.375 44.769531 163.195312 44.851562 162.703125 45.625 C 162.671875 45.679688 162.640625 45.734375 162.617188 45.792969 C 162.585938 45.871094 162.628906 45.964844 162.707031 45.988281 C 162.859375 46.03125 163.007812 46.085938 163.15625 46.167969 " fill-opacity="1" fill-rule="nonzero"/><path fill="rgb(38.42926%, 10.978699%, 7.839966%)" d="M 124.390625 36.105469 C 124.425781 35.988281 124.472656 35.871094 124.523438 35.761719 C 124.855469 35.078125 125.671875 34.5 126.429688 34.863281 C 127.425781 35.339844 126.722656 35.199219 126.460938 35.304688 C 126.371094 35.34375 126.390625 35.453125 126.40625 35.503906 C 126.546875 35.960938 127.070312 35.707031 127.070312 35.707031 C 127.21875 35.660156 127.402344 35.855469 127.457031 36.035156 C 127.800781 37.152344 127.371094 38.210938 126.546875 38.703125 C 125.871094 39.109375 125.144531 38.914062 124.695312 38.265625 C 124.464844 37.9375 124.34375 37.539062 124.304688 37.140625 C 124.269531 36.792969 124.292969 36.4375 124.390625 36.105469 " fill-opacity="1" fill-rule="nonzero"/><path fill="rgb(38.42926%, 10.978699%, 7.839966%)" d="M 64.507812 45.230469 C 64.339844 45.035156 64.089844 44.925781 63.835938 44.882812 C 62.96875 44.738281 61.984375 45.109375 61.5625 45.921875 C 61.203125 46.609375 61.179688 47.65625 61.964844 48.039062 C 62.0625 48.085938 62.164062 48.117188 62.273438 48.132812 C 62.289062 48.058594 62.25 47.964844 62.191406 47.878906 C 62.136719 47.796875 62.058594 47.722656 61.972656 47.675781 C 61.898438 47.636719 61.8125 47.621094 61.738281 47.578125 C 61.675781 47.539062 61.742188 47.476562 61.777344 47.457031 C 62.078125 47.300781 62.4375 47.601562 62.535156 47.875 C 62.574219 47.984375 62.566406 48.074219 62.527344 48.148438 C 62.96875 48.300781 63.507812 48.019531 63.863281 47.769531 C 64.242188 47.5 64.53125 47.09375 64.664062 46.640625 C 64.796875 46.199219 64.828125 45.59375 64.507812 45.230469 " fill-opacity="1" fill-rule="nonzero"/><path fill="rgb(38.42926%, 10.978699%, 7.839966%)" d="M 69.140625 47.910156 C 69.125 47.925781 69.042969 47.933594 69.070312 47.890625 C 69.175781 47.714844 69.265625 47.539062 69.253906 47.324219 C 69.234375 47.035156 68.96875 46.984375 68.734375 47.101562 C 68.515625 47.210938 68.382812 47.464844 68.410156 47.710938 C 68.4375 47.957031 68.605469 48.027344 68.753906 48.179688 C 68.808594 48.234375 68.675781 48.28125 68.640625 48.277344 C 68.320312 48.25 68.148438 47.902344 68.191406 47.605469 C 68.238281 47.300781 68.46875 47.042969 68.753906 46.953125 C 68.980469 46.882812 69.292969 46.882812 69.394531 47.144531 C 69.496094 47.402344 69.335938 47.742188 69.140625 47.910156 Z M 69.695312 46.875 C 69.484375 46.15625 68.839844 45.394531 68.140625 45.113281 C 67.894531 45.261719 67.375 45.457031 67.09375 45.539062 C 66.464844 45.71875 65.988281 45.585938 65.472656 45.261719 C 65.410156 45.21875 65.328125 45.21875 65.257812 45.253906 C 65.242188 45.261719 65.226562 45.269531 65.210938 45.277344 C 65.121094 45.320312 65.082031 45.421875 65.117188 45.511719 C 65.226562 45.78125 65.230469 46.074219 65.207031 46.375 C 65.164062 46.9375 65 47.019531 65.03125 47.117188 C 65.214844 47.75 65.78125 48.179688 66.320312 48.550781 C 66.855469 48.921875 67.523438 49.09375 68.171875 49.035156 C 68.628906 48.992188 69.101562 48.820312 69.382812 48.449219 C 69.699219 48.027344 69.84375 47.386719 69.695312 46.875 " fill-opacity="1" fill-rule="nonzero"/><path fill="rgb(38.42926%, 10.978699%, 7.839966%)" d="M 68.558594 41.082031 C 68.757812 41.023438 68.914062 41.160156 69.015625 41.3125 C 69.054688 41.367188 68.9375 41.40625 68.902344 41.371094 C 68.839844 41.300781 68.691406 41.164062 68.613281 41.214844 C 68.53125 41.269531 68.507812 41.386719 68.503906 41.476562 C 68.5 41.601562 68.542969 41.730469 68.632812 41.8125 C 68.761719 41.925781 68.933594 41.910156 69.089844 41.921875 C 69.164062 41.929688 69.160156 42.011719 69.097656 42.035156 C 68.6875 42.195312 68.199219 41.925781 68.28125 41.445312 C 68.308594 41.285156 68.402344 41.128906 68.558594 41.082031 Z M 66.792969 45.265625 C 66.898438 45.269531 67.003906 45.261719 67.109375 45.246094 C 67.710938 45.160156 68.273438 44.816406 68.679688 44.351562 C 69.3125 43.621094 69.886719 42.394531 69.390625 41.457031 C 69.261719 41.214844 69.039062 41.03125 68.800781 40.90625 C 68.140625 40.558594 67.316406 40.609375 66.644531 40.9375 C 65.570312 41.464844 64.652344 42.902344 65.101562 44.136719 C 65.351562 44.820312 66.078125 45.261719 66.792969 45.265625 " fill-opacity="1" fill-rule="nonzero"/><path fill="rgb(38.42926%, 10.978699%, 7.839966%)" d="M 67.046875 38.015625 C 67.097656 37.929688 67 37.835938 66.917969 37.890625 C 66.832031 37.945312 66.746094 38 66.660156 38.054688 C 66.171875 38.363281 65.65625 38.632812 65.1875 38.976562 C 64.375 39.570312 63.742188 40.371094 62.898438 40.929688 C 62.046875 41.488281 61.109375 41.898438 60.132812 42.175781 C 59.667969 42.308594 59.199219 42.390625 58.726562 42.476562 C 58.648438 42.488281 58.574219 42.515625 58.5 42.546875 C 58.078125 42.71875 58.082031 42.929688 58.183594 43.113281 C 58.285156 43.296875 58.667969 43.546875 58.855469 43.640625 C 59.433594 43.925781 60.160156 43.925781 60.730469 43.628906 C 61.339844 43.308594 61.636719 42.261719 62.375 42.234375 C 62.835938 42.214844 63.277344 42.421875 63.730469 42.445312 C 64.375 42.480469 64.570312 41.890625 64.710938 41.359375 C 64.816406 40.957031 64.972656 40.644531 65.363281 40.472656 C 65.878906 40.25 66.398438 40.230469 66.648438 39.640625 C 66.863281 39.128906 66.695312 38.621094 66.972656 38.140625 C 67 38.097656 67.023438 38.058594 67.046875 38.015625 " fill-opacity="1" fill-rule="nonzero"/><path fill="rgb(38.42926%, 10.978699%, 7.839966%)" d="M 70.535156 36.511719 C 70.132812 36.167969 69.542969 36.207031 69.050781 36.015625 C 68.417969 35.769531 67.886719 35.136719 67.214844 35.222656 C 66.769531 35.277344 66.398438 35.652344 65.945312 35.65625 C 65.539062 35.660156 65.199219 35.371094 64.828125 35.253906 C 64.433594 35.128906 63.992188 35.066406 63.582031 35.109375 C 63.035156 35.164062 62.492188 35.4375 62.1875 35.902344 C 62.121094 36 62.066406 36.105469 62.015625 36.214844 C 61.699219 36.925781 61.242188 37.609375 60.582031 38.03125 C 60.304688 38.210938 60.042969 38.332031 59.714844 38.386719 C 59.40625 38.433594 59.070312 38.421875 58.808594 38.625 C 58.636719 38.761719 58.535156 38.972656 58.46875 39.1875 C 58.339844 39.59375 58.3125 40.027344 58.164062 40.429688 C 58.019531 40.824219 57.746094 41.132812 57.4375 41.40625 C 57.1875 41.632812 56.960938 41.871094 56.660156 42.03125 C 56.371094 42.1875 56.046875 42.28125 55.71875 42.304688 C 55.203125 42.34375 54.6875 42.222656 54.191406 42.0625 C 54.078125 42.027344 53.964844 41.988281 53.851562 41.945312 C 53.664062 41.875 53.460938 41.925781 53.324219 42.074219 C 53.226562 42.183594 53.109375 42.28125 52.988281 42.375 C 52.863281 42.472656 52.882812 42.675781 53.03125 42.742188 C 53.679688 43.035156 54.472656 43.289062 54.929688 43.875 C 55.566406 44.695312 54.792969 45.566406 55.167969 46.417969 C 55.230469 46.554688 55.328125 46.675781 55.433594 46.785156 C 55.609375 46.957031 55.832031 47.015625 56.074219 47.019531 C 56.363281 47.027344 56.648438 47.007812 56.933594 47.074219 C 57.210938 47.136719 57.472656 47.253906 57.710938 47.40625 C 57.996094 47.59375 58.242188 47.847656 58.496094 48.074219 C 58.71875 48.273438 58.972656 48.527344 59.257812 48.621094 C 59.277344 48.625 59.292969 48.632812 59.3125 48.628906 C 59.335938 48.625 59.359375 48.605469 59.371094 48.582031 C 59.488281 48.402344 59.304688 48.09375 59.230469 47.953125 C 59.160156 47.816406 59.078125 47.6875 58.984375 47.570312 C 58.78125 47.316406 58.542969 47.050781 58.417969 46.746094 C 58.28125 46.410156 58.238281 45.996094 58.230469 45.636719 C 58.226562 45.355469 58.238281 45.03125 58.035156 44.839844 C 57.863281 44.671875 57.597656 44.671875 57.355469 44.660156 C 56.824219 44.640625 56.257812 44.511719 55.890625 44.117188 C 55.765625 43.976562 55.679688 43.730469 55.828125 43.617188 C 55.945312 43.523438 56.371094 43.515625 56.503906 43.585938 C 58.285156 44.554688 60.472656 45.542969 62.484375 44.761719 C 62.84375 44.621094 63.242188 44.542969 63.621094 44.605469 C 63.910156 44.652344 64.273438 44.84375 64.558594 44.765625 C 64.609375 44.753906 64.652344 44.730469 64.691406 44.699219 C 64.910156 44.503906 64.714844 44.234375 64.519531 44.179688 C 64.398438 44.144531 64.269531 44.148438 64.144531 44.171875 C 64.132812 44.171875 64.125 44.167969 64.117188 44.164062 C 63.570312 44.257812 63.027344 44.351562 62.472656 44.378906 C 61.914062 44.402344 61.355469 44.375 60.800781 44.332031 C 59.457031 44.226562 58.101562 43.882812 57.027344 43.058594 C 56.984375 43.027344 56.949219 42.984375 56.929688 42.933594 C 56.871094 42.789062 56.972656 42.699219 57.070312 42.632812 C 57.761719 42.179688 58.652344 42.230469 59.429688 42.042969 C 60.535156 41.769531 61.597656 41.304688 62.546875 40.667969 C 63.917969 39.75 65.050781 38.492188 66.453125 37.621094 C 67.089844 37.222656 67.78125 36.910156 68.511719 36.773438 C 69.128906 36.65625 69.78125 36.667969 70.371094 36.894531 C 70.453125 36.921875 70.546875 36.90625 70.609375 36.84375 C 70.722656 36.726562 70.632812 36.59375 70.535156 36.511719 " fill-opacity="1" fill-rule="nonzero"/><path fill="rgb(38.42926%, 10.978699%, 7.839966%)" d="M 121.367188 38.574219 C 121.957031 38.816406 121.113281 39.632812 120.914062 39.09375 C 120.847656 38.90625 120.941406 38.671875 121.105469 38.585938 C 121.179688 38.546875 121.269531 38.535156 121.367188 38.574219 Z M 120.324219 38.765625 C 120.179688 39.15625 120.28125 39.589844 120.398438 39.984375 C 120.527344 40.417969 120.675781 40.851562 120.941406 41.210938 C 121.210938 41.570312 121.613281 41.851562 122.054688 41.871094 C 122.386719 41.882812 122.707031 41.75 122.992188 41.582031 C 123.445312 41.308594 123.863281 40.886719 123.917969 40.355469 C 123.972656 39.792969 123.609375 39.277344 123.210938 38.882812 C 122.800781 38.472656 122.3125 38.109375 121.742188 38.027344 C 121.171875 37.945312 120.523438 38.21875 120.324219 38.765625 " fill-opacity="1" fill-rule="nonzero"/><path fill="rgb(38.42926%, 10.978699%, 7.839966%)" d="M 78.765625 40.835938 C 78.847656 40.816406 78.925781 40.828125 79.007812 40.8125 C 79.097656 40.796875 79.191406 40.75 79.265625 40.691406 C 79.339844 40.632812 79.402344 40.558594 79.410156 40.484375 C 79.308594 40.46875 79.203125 40.46875 79.101562 40.480469 C 78.28125 40.601562 78.007812 41.558594 78.136719 42.289062 C 78.320312 43.304688 79.421875 44.046875 80.410156 43.878906 C 80.414062 43.875 80.417969 43.875 80.421875 43.871094 C 81.183594 43.613281 81.25 42.582031 81.09375 41.941406 C 80.957031 41.371094 80.214844 40.535156 79.644531 40.546875 C 79.660156 40.625 79.640625 40.707031 79.574219 40.796875 C 79.40625 41.019531 78.996094 41.1875 78.769531 40.957031 C 78.742188 40.929688 78.699219 40.851562 78.765625 40.835938 " fill-opacity="1" fill-rule="nonzero"/><path fill="rgb(38.42926%, 10.978699%, 7.839966%)" d="M 85.605469 43.453125 C 85.441406 43.660156 85.152344 43.570312 84.96875 43.441406 C 84.734375 43.277344 84.597656 42.972656 84.640625 42.6875 C 84.683594 42.402344 84.941406 42.132812 85.242188 42.203125 C 85.273438 42.210938 85.382812 42.289062 85.316406 42.324219 C 85.136719 42.421875 84.964844 42.433594 84.871094 42.648438 C 84.777344 42.863281 84.824219 43.136719 84.992188 43.300781 C 85.171875 43.472656 85.429688 43.503906 85.527344 43.246094 C 85.601562 43.054688 85.566406 42.867188 85.519531 42.675781 C 85.511719 42.632812 85.582031 42.664062 85.59375 42.683594 C 85.71875 42.890625 85.769531 43.246094 85.605469 43.453125 Z M 85.960938 42.261719 C 85.808594 41.84375 85.429688 41.550781 85.027344 41.378906 C 84.453125 41.136719 83.800781 41.101562 83.207031 41.28125 C 82.613281 41.460938 81.976562 41.6875 81.628906 42.210938 C 81.578125 42.289062 81.699219 42.410156 81.582031 42.9375 C 81.507812 43.273438 81.210938 43.675781 80.964844 43.902344 C 80.992188 43.929688 81.015625 43.96875 81.035156 44.011719 C 81.101562 44.140625 81.246094 44.207031 81.386719 44.167969 C 81.945312 44.019531 82.574219 43.921875 83.0625 44.242188 C 83.253906 44.371094 83.566406 44.613281 83.773438 44.8125 C 83.859375 44.894531 83.976562 44.929688 84.089844 44.910156 C 84.75 44.789062 85.445312 44.320312 85.804688 43.78125 C 86.085938 43.363281 86.132812 42.734375 85.960938 42.261719 " fill-opacity="1" fill-rule="nonzero"/><path fill="rgb(38.42926%, 10.978699%, 7.839966%)" d="M 83.855469 48.113281 C 83.710938 48.078125 83.558594 48.011719 83.410156 48.078125 C 83.304688 48.128906 83.226562 48.230469 83.199219 48.347656 C 83.175781 48.429688 83.164062 48.542969 83.222656 48.617188 C 83.28125 48.6875 83.453125 48.605469 83.53125 48.5625 C 83.574219 48.535156 83.667969 48.605469 83.617188 48.644531 C 83.480469 48.753906 83.300781 48.832031 83.136719 48.722656 C 83.003906 48.632812 82.964844 48.464844 82.984375 48.3125 C 83.046875 47.847656 83.566406 47.746094 83.894531 48.011719 C 83.945312 48.050781 83.925781 48.128906 83.855469 48.113281 Z M 82.992188 44.515625 C 82.902344 44.472656 82.808594 44.433594 82.710938 44.402344 C 82.058594 44.203125 81.273438 44.394531 80.855469 44.941406 C 80.097656 45.933594 80.523438 47.503906 81.355469 48.296875 C 81.875 48.789062 82.605469 49.078125 83.304688 48.953125 C 83.5625 48.90625 83.8125 48.804688 83.996094 48.621094 C 84.714844 47.914062 84.539062 46.632812 84.164062 45.785156 C 83.929688 45.246094 83.515625 44.769531 82.992188 44.515625 " fill-opacity="1" fill-rule="nonzero"/><g clip-path="url(#id6)"><path fill="rgb(38.42926%, 10.978699%, 7.839966%)" d="M 83.601562 53.058594 C 83.003906 53.089844 82.40625 52.914062 81.878906 52.628906 C 81.25 52.289062 80.710938 51.804688 80.246094 51.261719 C 79.214844 50.058594 78.542969 48.585938 77.554688 47.351562 C 76.867188 46.5 76.035156 45.769531 75.105469 45.199219 C 74.453125 44.800781 73.628906 44.589844 73.128906 43.976562 C 73.054688 43.890625 72.988281 43.777344 73.082031 43.664062 C 73.113281 43.621094 73.160156 43.59375 73.207031 43.578125 C 74.417969 43.144531 75.96875 42.738281 77 43.515625 C 78.757812 44.839844 79.105469 44.886719 80.382812 44.765625 C 80.5 44.753906 80.578125 44.648438 80.554688 44.53125 C 80.382812 43.710938 80.253906 44.320312 79.648438 44.230469 C 79.230469 44.167969 78.726562 43.941406 78.441406 43.628906 C 78.222656 43.394531 78.15625 42.96875 77.890625 42.792969 C 77.863281 42.773438 77.839844 42.757812 77.808594 42.742188 C 77.621094 42.644531 77.40625 42.601562 77.199219 42.566406 C 76.253906 42.414062 75.300781 42.410156 74.34375 42.441406 C 74.265625 42.445312 74.238281 42.339844 74.304688 42.304688 C 74.332031 42.289062 74.359375 42.273438 74.386719 42.257812 C 75.144531 41.828125 75.941406 41.402344 76.835938 41.46875 C 77.785156 41.539062 77.742188 40.871094 78.179688 40.375 C 78.445312 40.070312 78.882812 39.988281 79.253906 39.847656 C 80.851562 39.242188 81.59375 37.929688 81.734375 36.207031 C 81.75 35.976562 81.753906 35.742188 81.753906 35.511719 C 81.746094 34.703125 81.222656 35.144531 81.171875 35.414062 C 81.113281 35.691406 81.011719 35.96875 80.847656 36.203125 C 80.582031 36.582031 80.234375 36.960938 79.785156 37.03125 C 79.394531 37.09375 79.035156 36.921875 78.648438 36.941406 C 78.257812 36.960938 77.902344 37.238281 77.660156 37.535156 C 77.5625 37.65625 77.472656 37.796875 77.328125 37.859375 C 77.148438 37.9375 76.945312 37.867188 76.753906 37.824219 C 76.375 37.738281 75.960938 37.761719 75.628906 37.96875 C 75.296875 38.171875 75.074219 38.574219 75.144531 38.960938 C 75.191406 39.210938 75.34375 39.425781 75.421875 39.664062 C 75.535156 40.027344 75.464844 40.425781 75.292969 40.761719 C 75.054688 41.226562 74.632812 41.644531 74.175781 41.882812 C 73.640625 42.15625 73.066406 42.429688 72.457031 42.527344 C 72.28125 42.558594 72.101562 42.570312 71.921875 42.578125 C 71.714844 42.585938 71.59375 42.335938 71.730469 42.175781 C 71.992188 41.875 72.355469 41.667969 72.75 41.636719 C 73.292969 41.597656 73.914062 41.816406 74.300781 41.382812 C 74.414062 41.253906 74.484375 41.089844 74.507812 40.917969 C 74.582031 40.414062 74.359375 39.957031 74.3125 39.46875 C 74.242188 38.785156 74.535156 38.070312 75.082031 37.652344 C 75.21875 37.546875 75.773438 37.007812 75.796875 36.835938 C 75.859375 36.4375 74.722656 36.71875 74.332031 36.839844 C 73.890625 36.976562 73.445312 37.117188 73.066406 37.390625 C 72.691406 37.664062 72.398438 38.09375 72.40625 38.5625 C 72.410156 39.03125 72.703125 39.542969 72.441406 39.929688 C 72.335938 40.089844 72.152344 40.179688 71.992188 40.285156 C 71.363281 40.699219 71 41.457031 70.980469 42.214844 C 70.976562 42.402344 70.820312 42.546875 70.636719 42.539062 C 70.578125 42.535156 70.515625 42.53125 70.457031 42.53125 C 70.199219 42.519531 69.972656 42.6875 69.894531 42.933594 C 69.84375 43.089844 69.792969 43.246094 69.734375 43.398438 C 69.65625 43.609375 69.816406 43.828125 70.035156 43.820312 C 70.484375 43.800781 70.933594 43.835938 71.375 43.953125 C 72.457031 44.242188 73.445312 45.164062 73.5 46.296875 C 73.519531 46.703125 73.421875 47.109375 73.425781 47.515625 C 73.429688 47.730469 73.460938 47.949219 73.578125 48.125 C 73.757812 48.386719 74.066406 48.472656 74.335938 48.605469 C 74.617188 48.75 74.820312 48.9375 75.023438 49.179688 C 75.503906 49.757812 75.726562 50.507812 75.816406 51.246094 C 75.828125 51.363281 75.847656 51.476562 75.878906 51.582031 C 76.027344 52.09375 76.445312 52.5 76.925781 52.710938 C 77.289062 52.867188 77.707031 52.9375 78.097656 52.9375 C 78.472656 52.9375 78.863281 52.777344 79.230469 52.898438 C 79.636719 53.03125 79.871094 53.480469 80.261719 53.660156 C 80.847656 53.933594 81.511719 53.511719 82.15625 53.472656 C 82.65625 53.441406 83.179688 53.644531 83.644531 53.453125 C 83.753906 53.40625 83.875 53.308594 83.804688 53.171875 C 83.769531 53.097656 83.6875 53.054688 83.601562 53.058594 " fill-opacity="1" fill-rule="nonzero"/></g><path fill="rgb(38.42926%, 10.978699%, 7.839966%)" d="M 80.992188 49.476562 C 80.933594 48.871094 80.464844 48.699219 80.058594 48.347656 C 79.75 48.078125 79.699219 47.75 79.714844 47.351562 C 79.738281 46.828125 79.726562 46.238281 79.132812 46.082031 C 78.710938 45.96875 78.25 46.03125 77.835938 45.878906 C 77.171875 45.640625 77.199219 44.601562 76.734375 44.132812 C 76.300781 43.699219 75.640625 43.484375 75.035156 43.578125 C 74.835938 43.609375 74.417969 43.722656 74.273438 43.863281 C 74.132812 44 74.070312 44.195312 74.40625 44.46875 C 74.464844 44.519531 74.523438 44.566406 74.589844 44.601562 C 74.996094 44.816406 75.398438 45.027344 75.785156 45.28125 C 76.589844 45.816406 77.332031 46.460938 77.945312 47.21875 C 78.554688 47.96875 78.90625 48.882812 79.476562 49.65625 C 79.808594 50.105469 80.199219 50.5 80.558594 50.921875 C 80.621094 50.996094 80.679688 51.070312 80.742188 51.148438 C 80.804688 51.21875 80.917969 51.164062 80.894531 51.070312 C 80.886719 51.027344 80.875 50.980469 80.867188 50.9375 C 80.75 50.417969 81.042969 50.003906 80.992188 49.476562 " fill-opacity="1" fill-rule="nonzero"/><path fill="rgb(38.42926%, 10.978699%, 7.839966%)" d="M 97.21875 37.921875 C 97.183594 38.039062 97.160156 38.175781 97.179688 38.292969 C 97.199219 38.410156 97.34375 38.445312 97.417969 38.355469 C 98.078125 37.570312 99.105469 37.113281 100.125 37.167969 C 100.46875 37.1875 100.820312 37.261719 101.152344 37.175781 C 101.648438 37.054688 102.015625 36.585938 102.128906 36.082031 C 102.238281 35.574219 102.128906 35.042969 101.925781 34.566406 C 101.894531 34.492188 101.859375 34.417969 101.757812 34.40625 C 101.683594 34.398438 101.609375 34.433594 101.558594 34.488281 C 101.46875 34.585938 101.449219 34.726562 101.421875 34.851562 C 101.320312 35.296875 101.054688 35.699219 100.691406 35.96875 C 100.328125 36.238281 99.871094 36.367188 99.421875 36.332031 C 99.015625 36.296875 98.59375 36.136719 98.21875 36.292969 C 97.941406 36.410156 97.757812 36.679688 97.613281 36.945312 C 97.449219 37.253906 97.316406 37.582031 97.21875 37.921875 " fill-opacity="1" fill-rule="nonzero"/><path fill="rgb(38.42926%, 10.978699%, 7.839966%)" d="M 118.773438 42.050781 C 118.445312 42.054688 118.261719 41.519531 118.628906 41.414062 C 118.945312 41.324219 119.019531 41.828125 118.867188 42.015625 C 118.851562 42.035156 118.832031 42.042969 118.808594 42.042969 C 118.800781 42.046875 118.789062 42.050781 118.773438 42.050781 Z M 120.941406 42.597656 C 121.183594 42.324219 121.125 41.878906 120.914062 41.582031 C 120.492188 40.996094 119.695312 40.691406 118.996094 40.75 C 118.746094 40.769531 118.484375 40.84375 118.316406 41.03125 C 118.109375 41.257812 118.085938 41.59375 118.148438 41.90625 C 118.160156 41.960938 118.171875 42.015625 118.1875 42.070312 C 118.257812 42.316406 118.375 42.5625 118.574219 42.722656 C 118.765625 42.875 119.011719 42.929688 119.253906 42.957031 C 119.742188 43.003906 120.578125 43.003906 120.941406 42.597656 " fill-opacity="1" fill-rule="nonzero"/><path fill="rgb(38.42926%, 10.978699%, 7.839966%)" d="M 134.832031 39.214844 C 134.929688 38.503906 135.492188 38.707031 135.824219 38.460938 C 136.191406 38.1875 136.058594 37.59375 136.261719 37.179688 C 136.503906 36.679688 137.160156 36.566406 137.710938 36.589844 C 138.117188 36.609375 138.523438 36.667969 138.921875 36.765625 C 139.105469 36.808594 139.105469 37.078125 138.921875 37.121094 C 138.21875 37.296875 137.570312 37.769531 137.132812 38.367188 C 136.496094 39.234375 136.226562 40.320312 136.082031 41.394531 C 136.054688 41.578125 136.027344 41.773438 135.886719 41.90625 C 135.816406 41.96875 135.726562 42.003906 135.632812 41.984375 C 135.46875 41.953125 135.414062 41.785156 135.375 41.640625 L 134.871094 39.71875 C 134.828125 39.554688 134.8125 39.382812 134.832031 39.214844 " fill-opacity="1" fill-rule="nonzero"/><g clip-path="url(#id7)"><path fill="rgb(38.42926%, 10.978699%, 7.839966%)" d="M 48.605469 48.304688 C 48.652344 48.152344 48.714844 48 48.8125 47.875 C 48.867188 47.8125 48.929688 47.753906 49 47.714844 C 49.058594 47.679688 49.113281 47.753906 49.070312 47.804688 C 48.933594 47.949219 48.847656 48.140625 48.835938 48.339844 C 48.832031 48.359375 48.832031 48.386719 48.84375 48.40625 C 48.863281 48.433594 48.902344 48.441406 48.9375 48.441406 C 49.257812 48.464844 49.589844 48.421875 49.863281 48.253906 C 50.773438 47.707031 50.296875 46.351562 49.785156 45.691406 C 49.519531 45.347656 49.03125 44.925781 48.53125 44.753906 L 48.53125 48.34375 C 48.53125 48.34375 48.53125 48.34375 48.535156 48.34375 C 48.5625 48.351562 48.59375 48.335938 48.605469 48.304688 " fill-opacity="1" fill-rule="nonzero"/></g><path fill="rgb(38.42926%, 10.978699%, 7.839966%)" d="M 53.734375 45.71875 C 54.109375 45.617188 54.34375 45.289062 54.386719 44.914062 C 54.402344 44.804688 54.339844 44.699219 54.238281 44.667969 C 54.203125 44.65625 54.167969 44.652344 54.125 44.664062 C 54.011719 44.699219 53.917969 44.832031 53.851562 44.925781 C 53.695312 45.132812 53.601562 45.378906 53.496094 45.613281 C 53.46875 45.679688 53.335938 45.726562 53.308594 45.640625 C 53.214844 45.308594 53.605469 44.835938 53.835938 44.640625 C 53.945312 44.550781 54.085938 44.484375 54.210938 44.476562 C 54.285156 44.46875 54.332031 44.390625 54.304688 44.320312 C 54.019531 43.613281 53.125 43.039062 52.421875 42.945312 C 51.257812 42.792969 50.792969 44.207031 51.5625 45 C 52.09375 45.546875 52.976562 45.929688 53.734375 45.71875 " fill-opacity="1" fill-rule="nonzero"/><g clip-path="url(#id8)"><path fill="rgb(38.42926%, 10.978699%, 7.839966%)" d="M 49.214844 40.867188 C 49.5 40.652344 49.6875 40.332031 49.863281 40.019531 C 50.035156 39.707031 50.210938 39.382812 50.480469 39.148438 C 50.953125 38.738281 51.632812 38.667969 52.246094 38.769531 C 52.394531 38.792969 52.550781 38.828125 52.695312 38.792969 C 52.957031 38.738281 53.128906 38.492188 53.332031 38.335938 C 53.566406 38.160156 53.8125 38.003906 54.09375 37.921875 C 54.480469 37.804688 54.890625 37.820312 55.253906 37.625 C 55.621094 37.425781 55.824219 37.042969 56.175781 36.820312 C 56.335938 36.722656 56.507812 36.664062 56.683594 36.625 C 56.757812 36.609375 56.890625 36.558594 56.875 36.484375 C 56.839844 36.316406 56.449219 36.292969 56.324219 36.265625 C 55.832031 36.160156 55.195312 36.09375 54.695312 36.132812 C 53.945312 36.1875 53.128906 36.4375 52.464844 36.800781 C 51.980469 37.066406 51.609375 37.492188 51.046875 37.585938 C 50.070312 37.75 49.257812 37.921875 48.980469 39.019531 C 48.875 39.429688 48.722656 39.78125 48.53125 40.101562 L 48.53125 41.085938 C 48.769531 41.105469 49.019531 41.015625 49.214844 40.867188 " fill-opacity="1" fill-rule="nonzero"/></g><path fill="rgb(38.42926%, 10.978699%, 7.839966%)" d="M 51.875 40.273438 C 51.910156 40.085938 52.007812 39.964844 52.199219 39.941406 C 52.359375 39.921875 52.460938 40.03125 52.578125 40.125 C 52.625 40.15625 52.527344 40.214844 52.488281 40.191406 C 52.394531 40.125 52.195312 40.011719 52.117188 40.148438 C 52.054688 40.253906 52.113281 40.417969 52.171875 40.503906 C 52.242188 40.613281 52.347656 40.683594 52.457031 40.746094 C 52.539062 40.789062 52.613281 40.800781 52.664062 40.878906 C 52.707031 40.949219 52.578125 41.003906 52.535156 41.011719 C 52.171875 41.066406 51.8125 40.621094 51.875 40.273438 Z M 51.617188 42.832031 C 52.152344 42.648438 52.683594 42.304688 53.023438 41.847656 C 53.425781 41.300781 53.699219 40.328125 53.230469 39.742188 C 52.847656 39.265625 52.113281 39.105469 51.539062 39.21875 C 50.847656 39.355469 50.257812 39.867188 49.9375 40.507812 C 49.707031 40.972656 49.605469 41.527344 49.773438 42.027344 C 49.886719 42.363281 50.121094 42.660156 50.4375 42.8125 C 50.789062 42.984375 51.207031 42.964844 51.578125 42.847656 C 51.589844 42.839844 51.605469 42.835938 51.617188 42.832031 " fill-opacity="1" fill-rule="nonzero"/><g clip-path="url(#id9)"><path fill="rgb(38.42926%, 10.978699%, 7.839966%)" d="M 50.777344 45.3125 C 50.832031 45.519531 50.855469 45.769531 50.800781 45.980469 C 50.738281 46.222656 50.59375 46.433594 50.601562 46.699219 C 50.613281 47.234375 51.226562 47.625 51.738281 47.492188 C 51.832031 47.464844 51.933594 47.480469 52.015625 47.53125 C 52.214844 47.65625 52.128906 47.863281 52.101562 48.046875 C 52.046875 48.394531 52.253906 48.765625 52.578125 48.894531 C 52.96875 49.050781 53.398438 48.898438 53.78125 49.070312 C 53.8125 49.085938 53.84375 49.101562 53.871094 49.121094 C 54.117188 49.269531 54.371094 49.652344 54.671875 49.675781 C 54.835938 49.6875 54.964844 49.53125 54.925781 49.367188 C 54.785156 48.789062 54.6875 48.199219 54.476562 47.644531 C 54.234375 47.003906 53.804688 46.386719 53.175781 46.136719 C 52.648438 45.925781 51.972656 46.03125 51.550781 45.644531 C 51.335938 45.441406 51.238281 45.109375 51.070312 44.855469 C 50.929688 44.578125 50.699219 44.347656 50.46875 44.132812 C 50.242188 43.921875 49.789062 43.621094 49.527344 43.453125 C 49.476562 43.421875 49.503906 43.34375 49.5625 43.351562 C 50.015625 43.402344 50.453125 43.554688 50.847656 43.789062 C 50.886719 43.8125 50.9375 43.789062 50.941406 43.742188 C 50.957031 43.628906 50.988281 43.515625 51.03125 43.40625 C 51.058594 43.34375 51.007812 43.277344 50.941406 43.28125 C 50.457031 43.304688 50.015625 43.113281 49.722656 42.734375 C 49.644531 42.632812 49.515625 42.601562 49.398438 42.644531 C 49.125 42.75 48.832031 42.839844 48.53125 42.910156 L 48.53125 43.617188 C 49.066406 43.6875 49.675781 43.933594 50.074219 44.261719 C 50.398438 44.523438 50.671875 44.894531 50.777344 45.3125 " fill-opacity="1" fill-rule="nonzero"/></g><g clip-path="url(#id10)"><path fill="rgb(38.42926%, 10.978699%, 7.839966%)" d="M 49.402344 37.839844 C 49.992188 37.390625 50.8125 37.421875 51.46875 37.082031 C 51.84375 36.882812 52.148438 36.574219 52.511719 36.351562 C 53.070312 36.015625 53.734375 35.917969 54.382812 35.871094 C 55.285156 35.800781 56.214844 35.820312 57.070312 36.128906 C 57.71875 36.359375 58.335938 36.761719 59.015625 36.820312 C 59.074219 36.824219 59.105469 36.753906 59.0625 36.714844 C 58.851562 36.503906 58.511719 36.308594 58.28125 36.101562 C 57.992188 35.84375 57.820312 35.460938 57.566406 35.164062 C 57.308594 34.859375 57 34.59375 56.621094 34.460938 C 55.878906 34.195312 55.019531 34.484375 54.285156 34.195312 C 53.777344 33.996094 53.367188 33.535156 52.828125 33.480469 C 52.382812 33.433594 51.960938 33.679688 51.597656 33.945312 C 51.234375 34.207031 50.875 34.503906 50.433594 34.59375 C 49.992188 34.6875 49.550781 34.546875 49.117188 34.460938 C 48.921875 34.417969 48.726562 34.394531 48.53125 34.386719 L 48.53125 39.207031 C 48.746094 38.691406 48.96875 38.167969 49.402344 37.839844 " fill-opacity="1" fill-rule="nonzero"/></g><g clip-path="url(#id11)"><path fill="rgb(38.42926%, 10.978699%, 7.839966%)" d="M 168.164062 44.761719 C 168.144531 44.773438 168.125 44.78125 168.105469 44.789062 C 168.015625 44.84375 167.925781 44.917969 167.847656 45.011719 C 167.398438 45.546875 167.605469 46.46875 167.832031 47.058594 C 168.039062 47.589844 168.445312 48.15625 169.003906 48.34375 L 169.003906 44.753906 C 168.714844 44.652344 168.421875 44.636719 168.164062 44.761719 " fill-opacity="1" fill-rule="nonzero"/></g><g clip-path="url(#id12)"><path fill="rgb(38.42926%, 10.978699%, 7.839966%)" d="M 168.820312 40.386719 C 168.726562 40.515625 168.488281 40.867188 168.695312 40.992188 C 168.792969 41.046875 168.898438 41.078125 169.003906 41.085938 L 169.003906 40.101562 C 168.945312 40.199219 168.886719 40.292969 168.820312 40.386719 " fill-opacity="1" fill-rule="nonzero"/></g><g clip-path="url(#id13)"><path fill="rgb(38.42926%, 10.978699%, 7.839966%)" d="M 168.363281 34.429688 C 167.601562 34.570312 166.871094 35.011719 166.488281 35.714844 C 166.082031 36.464844 165.558594 37.824219 165.859375 39.003906 C 166.054688 39.773438 166.761719 40.585938 166.328125 41.398438 C 165.933594 42.140625 164.929688 42.3125 164.183594 42.394531 C 164.140625 42.398438 164.09375 42.402344 164.050781 42.40625 C 163.90625 42.417969 163.804688 42.546875 163.820312 42.6875 C 163.835938 42.816406 163.84375 42.949219 163.839844 43.078125 C 163.835938 43.257812 163.976562 43.414062 164.152344 43.417969 C 165.40625 43.457031 166.65625 43.695312 167.542969 44.726562 C 167.601562 44.792969 167.695312 44.796875 167.757812 44.734375 C 167.796875 44.695312 167.835938 44.660156 167.878906 44.621094 L 167.882812 44.621094 C 167.960938 44.558594 167.984375 44.453125 167.949219 44.359375 C 167.746094 43.828125 168.378906 43.578125 168.796875 43.597656 C 168.863281 43.597656 168.933594 43.605469 169.003906 43.617188 L 169.003906 42.910156 C 168.179688 43.101562 167.285156 43.140625 166.507812 42.90625 C 166.382812 42.867188 166.242188 42.804688 166.234375 42.648438 C 166.234375 42.613281 166.242188 42.574219 166.257812 42.542969 C 166.308594 42.425781 166.410156 42.359375 166.507812 42.292969 C 167.5 41.613281 168.339844 40.679688 168.84375 39.578125 C 168.898438 39.457031 168.953125 39.332031 169.003906 39.207031 L 169.003906 34.386719 C 168.792969 34.378906 168.578125 34.390625 168.363281 34.429688 " fill-opacity="1" fill-rule="nonzero"/></g><g fill="rgb(16.859436%, 5.488586%, 1.959229%)" fill-opacity="1"><g transform="translate(53.956045, 26.725872)"><g><path d="M 3.058594 -8.828125 C 1.777344 -8.453125 1.425781 -7.300781 1.761719 -6.507812 C 2.203125 -5.511719 3.617188 -5.148438 4.730469 -6.210938 C 4.796875 -6.429688 4.5625 -6.84375 4.292969 -6.792969 C 2.96875 -6.003906 2.566406 -7.570312 3.734375 -7.933594 C 4.382812 -8.167969 5.1875 -7.882812 6.027344 -7.546875 C 5.730469 -6.613281 5.445312 -5.496094 4.875 -3.421875 C 4.472656 -2.035156 4.097656 -0.816406 3.382812 -0.804688 C 2.527344 -0.777344 2.292969 -1.800781 2.941406 -2.59375 C 3.019531 -2.878906 2.503906 -3.28125 2.152344 -3.164062 C 1.644531 -2.902344 1.335938 -2.476562 1.230469 -1.984375 C 1.023438 -1.039062 1.582031 0.144531 3.214844 0.128906 C 5.171875 0.117188 5.652344 -1.296875 6.339844 -3.550781 C 6.84375 -5.328125 7.066406 -6.210938 7.335938 -7.089844 C 8.324219 -6.882812 9.28125 -6.765625 10.097656 -7.335938 C 10.566406 -7.660156 10.890625 -8.503906 10.578125 -9.179688 C 10.4375 -9.375 9.890625 -9.375 9.773438 -9.125 C 9.761719 -8.453125 9.398438 -8.101562 8.59375 -8.0625 C 6.792969 -7.960938 5.300781 -9.527344 3.058594 -8.828125 Z M 3.058594 -8.828125 "/></g></g></g><g fill="rgb(16.859436%, 5.488586%, 1.959229%)" fill-opacity="1"><g transform="translate(63.119759, 26.725872)"><g><path d="M 1.90625 -8.816406 C 1.167969 -6.84375 0.117188 -3.1875 -0.582031 -0.257812 C -0.714844 0.246094 0.84375 0.117188 0.90625 -0.144531 C 1.140625 -1.21875 1.324219 -1.933594 1.660156 -3.164062 C 2.113281 -3.835938 2.800781 -4.460938 3.242188 -4.472656 C 3.707031 -4.484375 3.65625 -4.042969 3.550781 -3.65625 C 3.410156 -3.113281 3.007812 -1.839844 2.929688 -1.285156 C 2.8125 -0.480469 2.996094 0.167969 4.070312 0.117188 C 5.339844 0.0664062 6.261719 -1.4375 6.804688 -2.605469 C 6.882812 -2.761719 6.417969 -3.035156 6.351562 -2.863281 C 5.898438 -1.789062 5.109375 -0.804688 4.601562 -0.789062 C 4.03125 -0.75 4.550781 -1.984375 5.03125 -3.722656 C 5.328125 -4.757812 5.070312 -5.535156 4.019531 -5.523438 C 3.1875 -5.523438 2.386719 -4.746094 1.90625 -4.199219 C 2.332031 -5.71875 2.890625 -7.621094 3.265625 -8.53125 C 3.34375 -8.878906 2.164062 -9.074219 1.90625 -8.816406 Z M 1.90625 -8.816406 "/></g></g></g><g fill="rgb(16.859436%, 5.488586%, 1.959229%)" fill-opacity="1"><g transform="translate(69.380117, 26.725872)"><g><path d="M 3.292969 -5.496094 C 1.777344 -5.546875 0.414062 -4.484375 0.0664062 -2.789062 C -0.257812 -1.335938 0.441406 0.0664062 2.410156 0.128906 C 3.644531 0.167969 5.199219 -0.257812 6.25 -2.605469 C 6.3125 -2.761719 5.859375 -3.019531 5.78125 -2.863281 C 5.03125 -1.152344 3.65625 -0.699219 2.773438 -0.789062 C 1.867188 -0.882812 1.386719 -1.414062 1.464844 -2.242188 C 2.96875 -1.894531 4.199219 -2.347656 4.679688 -3.320312 C 5.171875 -4.265625 4.746094 -5.445312 3.292969 -5.496094 Z M 3.125 -4.578125 C 3.617188 -4.5625 3.628906 -4.097656 3.421875 -3.667969 C 3.164062 -3.097656 2.515625 -2.761719 1.554688 -2.902344 C 1.789062 -3.835938 2.515625 -4.617188 3.125 -4.578125 Z M 3.125 -4.578125 "/></g></g></g><g fill="rgb(16.859436%, 5.488586%, 1.959229%)" fill-opacity="1"><g transform="translate(75.083137, 26.725872)"><g/></g></g><g fill="rgb(16.859436%, 5.488586%, 1.959229%)" fill-opacity="1"><g transform="translate(77.545804, 26.725872)"><g><path d="M 6.792969 -9.011719 C 5.417969 -9.089844 4.328125 -8.480469 3.472656 -7.519531 C 3.203125 -7.972656 3.046875 -8.453125 3.007812 -8.789062 C 2.957031 -9.074219 2.269531 -9.035156 2.308594 -8.738281 C 2.332031 -8.179688 2.59375 -7.492188 2.96875 -6.910156 C 2.308594 -5.949219 1.90625 -4.785156 1.828125 -3.617188 C 1.671875 -1.285156 2.941406 0.179688 4.875 0.128906 C 6.691406 0.078125 7.832031 -0.777344 8.671875 -2.605469 C 8.75 -2.761719 8.296875 -3.035156 8.21875 -2.863281 C 7.519531 -1.359375 6.351562 -0.867188 5.484375 -0.828125 C 4.199219 -0.726562 3.265625 -1.554688 3.28125 -3.539062 C 3.28125 -4.277344 3.460938 -5.121094 3.796875 -5.871094 C 5.613281 -4.550781 7.960938 -5.132812 8.441406 -6.703125 C 8.855469 -7.933594 8.167969 -8.933594 6.792969 -9.011719 Z M 6.558594 -8.050781 C 7.117188 -8.023438 7.351562 -7.53125 7.105469 -7 C 6.820312 -6.066406 5.25 -5.859375 4.226562 -6.652344 C 4.808594 -7.507812 5.535156 -8.101562 6.558594 -8.050781 Z M 6.558594 -8.050781 "/></g></g></g><g fill="rgb(16.859436%, 5.488586%, 1.959229%)" fill-opacity="1"><g transform="translate(85.685563, 26.725872)"><g><path d="M 3.265625 -5.523438 C 1.738281 -5.496094 0.351562 -4.328125 -0.0117188 -2.539062 C -0.402344 -0.570312 0.621094 0.128906 1.878906 0.128906 C 2.734375 0.128906 3.460938 -0.195312 4.042969 -0.765625 C 4.992188 -0.570312 6.09375 -0.765625 6.9375 -2.605469 C 7.011719 -2.773438 6.558594 -3.019531 6.480469 -2.863281 C 5.925781 -1.554688 5.171875 -1.246094 4.539062 -1.308594 C 5.640625 -3.125 5.574219 -5.5625 3.265625 -5.523438 Z M 3.097656 -4.601562 C 4.070312 -4.652344 3.929688 -3.214844 3.421875 -2.023438 C 3.058594 -2.101562 2.722656 -1.621094 2.96875 -1.246094 C 2.734375 -0.972656 2.410156 -0.789062 2.085938 -0.789062 C 1.285156 -0.789062 1.324219 -1.722656 1.476562 -2.527344 C 1.671875 -3.5 2.332031 -4.5625 3.097656 -4.601562 Z M 3.097656 -4.601562 "/></g></g></g><g fill="rgb(16.859436%, 5.488586%, 1.959229%)" fill-opacity="1"><g transform="translate(92.088495, 26.725872)"><g><path d="M 1.984375 -7.90625 C 1.246094 -6.753906 0.558594 -4.757812 -0.0117188 -2.605469 C -0.480469 -0.789062 -0.789062 0.960938 -0.84375 1.957031 C -0.921875 3.125 -0.570312 3.796875 0.480469 3.8125 C 1.257812 3.824219 1.828125 3.460938 2.21875 2.8125 C 2.851562 1.75 2.917969 0.117188 1.984375 -0.945312 C 3.058594 -0.84375 4.292969 -0.867188 5.003906 -2.617188 C 5.054688 -2.761719 4.628906 -3.019531 4.550781 -2.863281 C 3.734375 -0.984375 2.023438 -1.515625 1.152344 -1.722656 C 1.257812 -2.191406 1.398438 -2.734375 1.503906 -3.058594 C 2.941406 -3.695312 4.550781 -5.070312 4.925781 -6.960938 C 5.378906 -9.050781 3.1875 -9.710938 1.984375 -7.90625 Z M 3.007812 -7.390625 C 3.488281 -8.257812 3.992188 -8.023438 3.8125 -7.222656 C 3.539062 -5.964844 2.710938 -4.730469 1.738281 -4.019531 C 2.125 -5.355469 2.644531 -6.703125 3.007812 -7.390625 Z M 0.921875 -0.828125 C 1.710938 -0.144531 1.632812 1.21875 1.324219 2.140625 C 1.011719 3.019531 0.390625 3.148438 0.414062 2.179688 C 0.441406 1.425781 0.699219 0.128906 0.921875 -0.828125 Z M 0.921875 -0.828125 "/></g></g></g><g fill="rgb(16.859436%, 5.488586%, 1.959229%)" fill-opacity="1"><g transform="translate(96.560182, 26.725872)"><g><path d="M 1.984375 -7.90625 C 1.246094 -6.753906 0.558594 -4.757812 -0.0117188 -2.605469 C -0.480469 -0.789062 -0.789062 0.960938 -0.84375 1.957031 C -0.921875 3.125 -0.570312 3.796875 0.480469 3.8125 C 1.257812 3.824219 1.828125 3.460938 2.21875 2.8125 C 2.851562 1.75 2.917969 0.117188 1.984375 -0.945312 C 3.058594 -0.84375 4.292969 -0.867188 5.003906 -2.617188 C 5.054688 -2.761719 4.628906 -3.019531 4.550781 -2.863281 C 3.734375 -0.984375 2.023438 -1.515625 1.152344 -1.722656 C 1.257812 -2.191406 1.398438 -2.734375 1.503906 -3.058594 C 2.941406 -3.695312 4.550781 -5.070312 4.925781 -6.960938 C 5.378906 -9.050781 3.1875 -9.710938 1.984375 -7.90625 Z M 3.007812 -7.390625 C 3.488281 -8.257812 3.992188 -8.023438 3.8125 -7.222656 C 3.539062 -5.964844 2.710938 -4.730469 1.738281 -4.019531 C 2.125 -5.355469 2.644531 -6.703125 3.007812 -7.390625 Z M 0.921875 -0.828125 C 1.710938 -0.144531 1.632812 1.21875 1.324219 2.140625 C 1.011719 3.019531 0.390625 3.148438 0.414062 2.179688 C 0.441406 1.425781 0.699219 0.128906 0.921875 -0.828125 Z M 0.921875 -0.828125 "/></g></g></g><g fill="rgb(16.859436%, 5.488586%, 1.959229%)" fill-opacity="1"><g transform="translate(101.031868, 26.725872)"><g><path d="M 3.292969 -5.496094 C 1.777344 -5.546875 0.414062 -4.484375 0.0664062 -2.789062 C -0.257812 -1.335938 0.441406 0.0664062 2.410156 0.128906 C 3.644531 0.167969 5.199219 -0.257812 6.25 -2.605469 C 6.3125 -2.761719 5.859375 -3.019531 5.78125 -2.863281 C 5.03125 -1.152344 3.65625 -0.699219 2.773438 -0.789062 C 1.867188 -0.882812 1.386719 -1.414062 1.464844 -2.242188 C 2.96875 -1.894531 4.199219 -2.347656 4.679688 -3.320312 C 5.171875 -4.265625 4.746094 -5.445312 3.292969 -5.496094 Z M 3.125 -4.578125 C 3.617188 -4.5625 3.628906 -4.097656 3.421875 -3.667969 C 3.164062 -3.097656 2.515625 -2.761719 1.554688 -2.902344 C 1.789062 -3.835938 2.515625 -4.617188 3.125 -4.578125 Z M 3.125 -4.578125 "/></g></g></g><g fill="rgb(16.859436%, 5.488586%, 1.959229%)" fill-opacity="1"><g transform="translate(106.734888, 26.725872)"><g><path d="M 3.292969 -5.496094 C 1.777344 -5.546875 0.414062 -4.484375 0.0664062 -2.789062 C -0.257812 -1.335938 0.441406 0.0664062 2.410156 0.128906 C 3.644531 0.167969 5.199219 -0.257812 6.25 -2.605469 C 6.3125 -2.761719 5.859375 -3.019531 5.78125 -2.863281 C 5.03125 -1.152344 3.65625 -0.699219 2.773438 -0.789062 C 1.867188 -0.882812 1.386719 -1.414062 1.464844 -2.242188 C 2.96875 -1.894531 4.199219 -2.347656 4.679688 -3.320312 C 5.171875 -4.265625 4.746094 -5.445312 3.292969 -5.496094 Z M 3.125 -4.578125 C 3.617188 -4.5625 3.628906 -4.097656 3.421875 -3.667969 C 3.164062 -3.097656 2.515625 -2.761719 1.554688 -2.902344 C 1.789062 -3.835938 2.515625 -4.617188 3.125 -4.578125 Z M 3.125 -4.578125 "/></g></g></g><g fill="rgb(16.859436%, 5.488586%, 1.959229%)" fill-opacity="1"><g transform="translate(112.437908, 26.725872)"><g><path d="M 2.359375 -8.582031 C 2.488281 -9.023438 1.582031 -9.089844 1.464844 -8.648438 L 1.089844 -6.9375 C 1 -6.558594 1.800781 -6.546875 1.894531 -6.859375 Z M 2.359375 -8.582031 "/></g></g></g><g fill="rgb(16.859436%, 5.488586%, 1.959229%)" fill-opacity="1"><g transform="translate(115.315338, 26.725872)"><g><path d="M 1.96875 0.144531 C 2.75 0.15625 3.460938 -0.15625 3.835938 -0.699219 C 4.707031 -0.675781 5.625 -1.074219 6.3125 -2.605469 C 6.378906 -2.75 5.925781 -3.019531 5.859375 -2.878906 C 5.355469 -1.699219 4.691406 -1.308594 4.109375 -1.285156 C 4.433594 -2.59375 3.667969 -3.527344 3.449219 -5.171875 C 4.097656 -6.042969 2.878906 -6.496094 1.96875 -5.640625 C 1.152344 -4.886719 0.429688 -3.628906 -0.128906 -2.425781 C -0.207031 -2.242188 0.246094 -2.007812 0.335938 -2.179688 C 0.855469 -3.253906 1.492188 -4.40625 2.164062 -5.070312 C 2.242188 -3.992188 2.828125 -2.917969 2.800781 -1.996094 C 2.4375 -1.996094 2.242188 -1.414062 2.59375 -1.101562 C 2.476562 -0.933594 2.230469 -0.789062 1.96875 -0.789062 C 1.554688 -0.789062 1.246094 -1.152344 1.324219 -1.710938 C 1.167969 -1.867188 0.609375 -1.777344 0.492188 -1.425781 C 0.441406 -0.402344 1.191406 0.144531 1.96875 0.144531 Z M 1.96875 0.144531 "/></g></g></g><g fill="rgb(16.859436%, 5.488586%, 1.959229%)" fill-opacity="1"><g transform="translate(121.096124, 26.725872)"><g/></g></g><g fill="rgb(16.859436%, 5.488586%, 1.959229%)" fill-opacity="1"><g transform="translate(123.558792, 26.725872)"><g><path d="M 7.117188 -9.023438 C 5.535156 -9.035156 4.097656 -8.554688 3.242188 -7.714844 C 2.359375 -6.84375 2.101562 -5.289062 3.292969 -4.511719 C 3.644531 -4.355469 4.175781 -4.746094 4.175781 -5.082031 C 3.28125 -6.765625 5.003906 -8.101562 7.050781 -8.078125 C 8.492188 -8.050781 9.242188 -7.429688 8.996094 -6.429688 C 8.75 -5.457031 7.6875 -4.992188 6.480469 -5.003906 C 6.714844 -5.757812 6.960938 -6.714844 7.453125 -7.050781 C 7.546875 -7.261719 7 -7.546875 6.597656 -7.402344 C 5.277344 -6.910156 5.042969 -4.136719 4.304688 -2.21875 C 2.929688 -3.074219 1.113281 -2.75 1.050781 -1.269531 C 1.011719 -0.296875 1.957031 0.128906 2.996094 0.117188 C 3.785156 0.0898438 4.445312 -0.207031 4.886719 -0.789062 C 5.613281 -0.246094 6.378906 0.105469 7.335938 0.117188 C 8.804688 0.117188 9.878906 -0.621094 10.152344 -2.074219 C 10.398438 -3.304688 9.554688 -4.484375 8.308594 -4.667969 C 9.191406 -4.71875 10.230469 -5.339844 10.421875 -6.367188 C 10.722656 -7.933594 9.179688 -9.011719 7.117188 -9.023438 Z M 6.234375 -4.253906 C 6.742188 -4.292969 7.128906 -4.253906 7.546875 -4.148438 C 8.335938 -3.953125 8.945312 -3.359375 8.789062 -2.359375 C 8.492188 -0.453125 6.597656 -0.480469 5.339844 -1.542969 C 5.703125 -2.371094 5.976562 -3.421875 6.234375 -4.253906 Z M 3.125 -1.855469 C 3.398438 -1.816406 3.722656 -1.644531 3.980469 -1.492188 C 3.722656 -1.0625 3.398438 -0.855469 3.085938 -0.816406 C 1.933594 -0.6875 2.085938 -1.984375 3.125 -1.855469 Z M 3.125 -1.855469 "/></g></g></g><g fill="rgb(16.859436%, 5.488586%, 1.959229%)" fill-opacity="1"><g transform="translate(134.653753, 26.725872)"><g><path d="M 3.292969 -5.496094 C 1.777344 -5.546875 0.414062 -4.484375 0.0664062 -2.789062 C -0.257812 -1.335938 0.441406 0.0664062 2.410156 0.128906 C 3.644531 0.167969 5.199219 -0.257812 6.25 -2.605469 C 6.3125 -2.761719 5.859375 -3.019531 5.78125 -2.863281 C 5.03125 -1.152344 3.65625 -0.699219 2.773438 -0.789062 C 1.867188 -0.882812 1.386719 -1.414062 1.464844 -2.242188 C 2.96875 -1.894531 4.199219 -2.347656 4.679688 -3.320312 C 5.171875 -4.265625 4.746094 -5.445312 3.292969 -5.496094 Z M 3.125 -4.578125 C 3.617188 -4.5625 3.628906 -4.097656 3.421875 -3.667969 C 3.164062 -3.097656 2.515625 -2.761719 1.554688 -2.902344 C 1.789062 -3.835938 2.515625 -4.617188 3.125 -4.578125 Z M 3.125 -4.578125 "/></g></g></g><g fill="rgb(16.859436%, 5.488586%, 1.959229%)" fill-opacity="1"><g transform="translate(140.356773, 26.725872)"><g><path d="M 3.085938 -5.484375 C 1.621094 -5.238281 0.105469 -3.746094 -0.179688 -2.007812 C -0.414062 -0.558594 0.3125 0.128906 1.257812 0.117188 C 2.308594 0.0898438 2.878906 -0.714844 3.332031 -1.503906 C 3.175781 -0.542969 3.527344 0.0507812 4.148438 0.0507812 C 5.367188 0.0507812 6.378906 -1.191406 7.050781 -2.605469 C 7.128906 -2.761719 6.664062 -3.019531 6.597656 -2.863281 C 6.132812 -1.738281 5.25 -0.855469 4.769531 -0.84375 C 4.472656 -0.84375 4.394531 -1.140625 4.539062 -1.789062 C 4.652344 -2.425781 4.886719 -3.203125 5.03125 -3.695312 C 4.976562 -3.96875 4.019531 -4.238281 3.785156 -3.941406 C 3.34375 -2.28125 2.046875 -0.3125 1.414062 -0.933594 C 1.113281 -1.230469 1.191406 -2.113281 1.59375 -2.957031 C 1.996094 -3.8125 2.710938 -4.472656 3.460938 -4.578125 C 4.058594 -4.652344 4.785156 -4.472656 5.316406 -4.042969 C 5.523438 -3.941406 6.054688 -4.539062 5.925781 -4.746094 C 5.199219 -5.484375 3.941406 -5.625 3.085938 -5.484375 Z M 3.085938 -5.484375 "/></g></g></g><g fill="rgb(16.859436%, 5.488586%, 1.959229%)" fill-opacity="1"><g transform="translate(146.876358, 26.725872)"><g><path d="M 4.019531 -5.328125 C 3.773438 -4.460938 3.511719 -3.511719 3.242188 -2.695312 C 2.851562 -1.59375 2.035156 -0.828125 1.53125 -0.828125 C 1.050781 -0.828125 1.179688 -1.503906 1.359375 -2.242188 C 1.59375 -3.28125 1.933594 -4.433594 2.113281 -5.160156 C 2.113281 -5.511719 0.921875 -5.625 0.765625 -5.300781 C 0.464844 -4.148438 0.0117188 -2.878906 -0.21875 -1.582031 C -0.390625 -0.675781 -0.128906 0.105469 0.894531 0.117188 C 1.761719 0.144531 2.578125 -0.285156 3.332031 -1.53125 C 3.136719 -0.75 3.410156 0.0664062 4.121094 0.0664062 C 5.472656 0.078125 6.429688 -1.722656 6.871094 -2.605469 C 6.949219 -2.761719 6.496094 -3.035156 6.417969 -2.863281 C 5.949219 -1.777344 5.171875 -0.816406 4.679688 -0.828125 C 4.019531 -0.828125 5.03125 -3.941406 5.367188 -5.148438 C 5.277344 -5.523438 4.175781 -5.613281 4.019531 -5.328125 Z M 4.019531 -5.328125 "/></g></g></g><g fill="rgb(16.859436%, 5.488586%, 1.959229%)" fill-opacity="1"><g transform="translate(153.214482, 26.725872)"><g><path d="M 1.59375 0.117188 C 2.890625 0.105469 3.835938 -0.972656 4.539062 -2.59375 C 4.601562 -2.761719 4.160156 -3.019531 4.082031 -2.863281 C 3.539062 -1.632812 2.617188 -0.777344 1.867188 -0.789062 C 1.230469 -0.804688 1.230469 -1.683594 1.503906 -2.878906 C 1.621094 -3.421875 1.816406 -4.109375 2.007812 -4.785156 L 3.226562 -4.785156 C 3.421875 -4.847656 3.578125 -5.457031 3.332031 -5.640625 L 2.242188 -5.640625 C 2.539062 -6.625 2.839844 -7.546875 3.125 -8.335938 C 3.113281 -8.710938 1.933594 -8.855469 1.75 -8.59375 C 1.492188 -7.933594 1.089844 -6.726562 0.75 -5.640625 L 0.234375 -5.640625 C 0.0273438 -5.5625 -0.128906 -4.925781 0.128906 -4.785156 L 0.519531 -4.785156 C -0.078125 -2.515625 -0.675781 0.144531 1.59375 0.117188 Z M 1.59375 0.117188 "/></g></g></g><g fill="rgb(16.859436%, 5.488586%, 1.959229%)" fill-opacity="1"><g transform="translate(157.206592, 26.725872)"><g><path d="M 1.128906 3.835938 C 2.464844 3.824219 3.046875 3.175781 3.722656 0.75 C 5.070312 0.144531 5.949219 -0.714844 6.832031 -2.605469 C 6.898438 -2.773438 6.441406 -3.019531 6.378906 -2.878906 C 5.703125 -1.347656 4.886719 -0.503906 3.953125 -0.0898438 C 4.34375 -1.492188 4.746094 -3.019531 5.328125 -5.148438 C 5.289062 -5.472656 4.1875 -5.652344 3.96875 -5.328125 C 3.773438 -4.523438 3.5 -3.539062 3.164062 -2.734375 C 2.722656 -1.683594 1.984375 -0.816406 1.453125 -0.828125 C 1.050781 -0.828125 1.101562 -1.285156 1.246094 -1.867188 C 1.515625 -3.007812 1.855469 -4.238281 2.074219 -5.171875 C 2.023438 -5.546875 0.882812 -5.601562 0.738281 -5.300781 C 0.503906 -4.175781 0.0507812 -2.941406 -0.246094 -1.671875 C -0.480469 -0.714844 -0.257812 0.0390625 0.765625 0.105469 C 1.464844 0.179688 2.371094 -0.21875 3.125 -1.375 C 2.902344 -0.648438 2.722656 -0.0390625 2.578125 0.351562 C 1.296875 0.765625 -0.0898438 1.285156 -0.246094 2.527344 C -0.351562 3.382812 0.257812 3.863281 1.128906 3.835938 Z M 1.359375 2.890625 C 0.921875 2.96875 0.816406 2.515625 1.128906 2.085938 C 1.359375 1.75 1.867188 1.414062 2.371094 1.179688 C 2.308594 1.453125 2.242188 1.710938 2.152344 1.957031 C 1.933594 2.554688 1.632812 2.828125 1.359375 2.890625 Z M 1.359375 2.890625 "/></g></g></g></svg>